<svg xmlns="http://www.w3.org/2000/svg" width="16" height="16" fill="none" viewBox="0 0 16 16">
  <path fill="#000" fill-rule="evenodd" d="M8 1c.43 0 .85.056 1.252.16C11.399 1.72 13 3.677 13 6v2.27c.597.345 1 .99 1 1.73v3.5a1.5 1.5 0 0 1-1.5 1.5h-9A1.5 1.5 0 0 1 2 13.5V10c0-.74.403-1.385 1-1.73V6c0-2.323 1.601-4.281 3.748-4.84Q7.351 1.002 8 1m0 1q-.519.002-1 .128l-.317.097A4.02 4.02 0 0 0 4 6v3a1 1 0 0 0-1 1v3a1 1 0 0 0 1 1h8a1 1 0 0 0 1-1v-3a1 1 0 0 0-1-1V6a4.02 4.02 0 0 0-2.683-3.775L9 2.128A4 4 0 0 0 8 2" clip-rule="evenodd" opacity=".4"/>
  <path fill="url(#a)" d="M3.5 14h9a.5.5 0 0 0 .5-.5v-4a.5.5 0 0 0-.5-.5h-9a.5.5 0 0 0-.5.5v4a.5.5 0 0 0 .5.5"/>
  <path stroke="url(#b)" stroke-linejoin="round" d="M12.5 9.5h-9v4h9z" opacity=".5"/>
  <path stroke="url(#c)" d="M12.5 8.5h-9a1 1 0 0 0-1 1v4a1 1 0 0 0 1 1h9a1 1 0 0 0 1-1v-4a1 1 0 0 0-1-1Z"/>
  <path fill="url(#d)" d="M10.5 10a.5.5 0 0 1 0 1zm-5.5.5V10h5.5v1H5z" opacity=".2"/>
  <g opacity=".05">
    <mask id="e" fill="#fff">
      <path d="M12.5 9h-9a.5.5 0 0 0-.5.5v4a.5.5 0 0 0 .5.5h9a.5.5 0 0 0 .5-.5v-4a.5.5 0 0 0-.5-.5"/>
    </mask>
    <path stroke="#000" d="M12.5 9h-9a.5.5 0 0 0-.5.5v4a.5.5 0 0 0 .5.5h9a.5.5 0 0 0 .5-.5v-4a.5.5 0 0 0-.5-.5Z" mask="url(#e)"/>
  </g>
  <path stroke="url(#f)" stroke-linecap="square" d="M5 11.5h5.5" opacity=".05"/>
  <path fill="url(#g)" d="M6 12c0 .553-.224 1-.5 1s-.5-.447-.5-1v-1c0-.552.224-1 .5-1s.5.448.5 1z" opacity=".5"/>
  <path fill="url(#h)" d="M5 10.5a.5.5 0 0 0-1 0v2a.5.5 0 0 0 1 0z" opacity=".5"/>
  <path fill="url(#i)" d="M12 10.5a.5.5 0 0 0-1 0v2a.5.5 0 0 0 1 0z" opacity=".5"/>
  <path fill="url(#j)" d="M11 12c0 .553-.224 1-.5 1s-.5-.447-.5-1v-1c0-.552.224-1 .5-1s.5.448.5 1z" opacity=".5"/>
  <g opacity=".6">
    <path fill="url(#k)" d="M8 2c.344 0 .68.045 1 .128 1.721.448 3 2.02 3 3.872v2h-2V6a2.02 2.02 0 0 0-1.504-1.937 2 2 0 0 0-.992 0A2.02 2.02 0 0 0 6 6v2H4V6a4.02 4.02 0 0 1 3-3.872Q7.482 2.002 8 2"/>
    <path fill="#272727" d="M8 2c.344 0 .68.045 1 .128 1.721.448 3 2.02 3 3.872v2h-2V6a2.02 2.02 0 0 0-1.504-1.937 2 2 0 0 0-.992 0A2.02 2.02 0 0 0 6 6v2H4V6a4.02 4.02 0 0 1 3-3.872Q7.482 2.002 8 2"/>
  </g>
  <path fill="url(#l)" d="M8 2c.344 0 .68.045 1 .128 1.721.448 3 2.02 3 3.872v2h-1V6a3.02 3.02 0 0 0-2.252-2.904 3 3 0 0 0-1.496 0A3.02 3.02 0 0 0 5 6v2H4V6a4.02 4.02 0 0 1 3-3.872Q7.482 2.002 8 2" opacity=".6"/>
  <path fill="#fff" d="M8 2c.344 0 .68.045 1 .128 1.721.448 3 2.02 3 3.872v2h-.5V6A3.476 3.476 0 0 0 8 2.5 3.476 3.476 0 0 0 4.5 6v2H4V6a4.02 4.02 0 0 1 3-3.872Q7.482 2.002 8 2" opacity=".4"/>
  <defs>
    <linearGradient id="b" x1="9.321" x2="9.321" y1="1.818" y2="13.007" gradientUnits="userSpaceOnUse">
      <stop stop-color="#fff"/>
      <stop offset=".033" stop-color="#fff" stop-opacity=".235"/>
      <stop offset=".986" stop-color="#fff" stop-opacity=".157"/>
      <stop offset="1" stop-color="#fff" stop-opacity=".392"/>
    </linearGradient>
    <linearGradient id="c" x1="8.494" x2="8.494" y1="9.25" y2="15.25" gradientUnits="userSpaceOnUse">
      <stop stop-color="#a4885f"/>
      <stop offset="1" stop-color="#a08358" stop-opacity=".5"/>
    </linearGradient>
    <linearGradient id="d" x1="13.592" x2="-1.46" y1="15857" y2="15857" gradientUnits="userSpaceOnUse">
      <stop stop-color="#fff"/>
      <stop offset="1" stop-color="#fff" stop-opacity="0"/>
    </linearGradient>
    <linearGradient id="f" x1="13.592" x2="-1.46" y1="11.5" y2="11.5" gradientUnits="userSpaceOnUse">
      <stop/>
      <stop offset="1" stop-opacity="0"/>
    </linearGradient>
    <linearGradient id="g" x1="5.833" x2="5.833" y1="6" y2="13" gradientUnits="userSpaceOnUse">
      <stop stop-color="#fff"/>
      <stop offset="1" stop-color="#fff" stop-opacity="0"/>
    </linearGradient>
    <linearGradient id="h" x1="4.833" x2="4.833" y1="13" y2="6" gradientUnits="userSpaceOnUse">
      <stop stop-color="#d88f22"/>
      <stop offset="1" stop-color="#d88f22" stop-opacity="0"/>
    </linearGradient>
    <linearGradient id="i" x1="11.833" x2="11.833" y1="13" y2="6" gradientUnits="userSpaceOnUse">
      <stop stop-color="#d88f22"/>
      <stop offset="1" stop-color="#d88f22" stop-opacity="0"/>
    </linearGradient>
    <linearGradient id="j" x1="10.833" x2="10.833" y1="6" y2="13" gradientUnits="userSpaceOnUse">
      <stop stop-color="#fff"/>
      <stop offset="1" stop-color="#fff" stop-opacity="0"/>
    </linearGradient>
    <linearGradient id="k" x1="8" x2="8" y1="3" y2="9" gradientUnits="userSpaceOnUse">
      <stop stop-color="#fff"/>
      <stop offset="1" stop-color="#e0e0e0"/>
    </linearGradient>
    <linearGradient id="l" x1="8" x2="8" y1="2" y2="9" gradientUnits="userSpaceOnUse">
      <stop stop-color="#fff"/>
      <stop offset="1" stop-color="#e0e0e0"/>
    </linearGradient>
    <radialGradient id="a" cx="0" cy="0" r="1" gradientTransform="matrix(0 14 -20 0 4.667 2.75)" gradientUnits="userSpaceOnUse">
      <stop stop-color="#f2e0c4"/>
      <stop offset=".765" stop-color="#e5af5b"/>
      <stop offset="1" stop-color="#af6900"/>
    </radialGradient>
  </defs>
</svg>
