<svg xmlns="http://www.w3.org/2000/svg" width="16" height="16" fill="none" viewBox="0 0 16 16">
  <g clip-path="url(#a)">
    <mask id="c" fill="#fff">
      <path d="M7.5 1C8.33 1 9 1.67 9 2.5 9.45.46 7.1-.74 5.5.5 4.16 1.53 4.58 4.25 3 5c-.53.25-1.5 0-1.5 0v2c1.12-.28 2.12-.53 3-1.5a7.5 7.5 0 0 0 1.5-3C6 1.67 6.67 1 7.5 1"/>
    </mask>
    <path stroke="url(#b)" d="M7.5 1C8.33 1 9 1.67 9 2.5 9.45.46 7.1-.74 5.5.5 4.16 1.53 4.58 4.25 3 5c-.53.25-1.5 0-1.5 0v2c1.12-.28 2.12-.53 3-1.5a7.5 7.5 0 0 0 1.5-3C6 1.67 6.67 1 7.5 1Z" mask="url(#c)"/>
    <path fill="#d9d9d9" d="M5.8.9c.45-.35.97-.45 1.43-.38a2 2 0 0 0-1.73 1.9c-.08.42-.28.94-.53 1.45-.27.53-.57 1-.84 1.3-.62.68-1.3.95-2.13 1.18V5.6c.32.03.82.05 1.21-.14 1.03-.48 1.36-1.6 1.6-2.45q.2-.71.42-1.27T5.8.9"/>
    <path fill="#d9d9d9" d="M2 3h1v4H2zm0 6h1v4H2z"/>
    <path fill="#202020" d="M6 2.5a1.5 1.5 0 1 1 3 0V6H6z" opacity=".6"/>
    <path fill="#d9d9d9" d="M7 2a.5.5 0 0 1 1 0v4H7z"/>
    <mask id="e" fill="#fff">
      <path d="M9 6c.08.22.2.78.25 1.02q-.53.52-.78 1.06A5 5 0 0 0 8 9.92v.33l-2.5.25L6 6z"/>
    </mask>
    <path fill="url(#d)" stroke="#cd8819" d="M9 6c.08.22.2.78.25 1.02q-.53.52-.78 1.06A5 5 0 0 0 8 9.92v.33l-2.5.25L6 6z" mask="url(#e)"/>
    <path fill="url(#f)" d="M8.14 9a5 5 0 0 0-.14.92v.35A2 2 0 0 0 7 12v3q.01.54.26 1H5v-6c0-.5.5-1 .92-1z"/>
    <path fill="#0d48af" d="M8.14 9a5 5 0 0 0-.14.92V10H6v5h1q0 .54.26 1H5v-6c0-.4.31-.79.65-.94A1 1 0 0 1 6 9z"/>
    <path stroke="url(#g)" d="M9.5 12v-2s0-2.5 2.5-2.5 2.5 2.5 2.5 2.5v2" opacity=".6"/>
    <g opacity=".4">
      <mask id="h" fill="#fff">
        <path d="M12 7q1.06.02 1.72.47c.44.3.73.68.91 1.06A4 4 0 0 1 15 9.96V12H9V9.96l.05-.43c.04-.27.13-.63.32-1 .18-.38.47-.76.9-1.06Q10.95 7.02 12 7"/>
      </mask>
      <path stroke="#fff" stroke-linecap="round" d="M12 7q1.06.02 1.72.47c.44.3.73.68.91 1.06A4 4 0 0 1 15 9.96V12H9V9.96l.05-.43c.04-.27.13-.63.32-1 .18-.38.47-.76.9-1.06Q10.95 7.02 12 7Z" mask="url(#h)"/>
    </g>
    <path stroke="url(#i)" stroke-linecap="round" stroke-width=".5" d="M9.5 10s0-.47.2-1c.2-.5.57-1.06 1.3-1.34"/>
    <g fill="#000" fill-rule="evenodd" clip-rule="evenodd" opacity=".4">
      <path d="M14 12h-4V9.99l.03-.3q.05-.31.23-.72.18-.39.57-.66.38-.29 1.17-.31c.54 0 .9.13 1.17.3q.38.28.57.67a3 3 0 0 1 .26.96zm-1-1v-1a2 2 0 0 0-.15-.58 1 1 0 0 0-.24-.28A1 1 0 0 0 12 9q-.4.01-.54.1l-.07.04a1 1 0 0 0-.24.28q-.1.22-.13.44L11 10v1z"/>
      <path d="M16 14.5c0 .83-.67 1.5-1.5 1.5h-5A1.5 1.5 0 0 1 8 14.5V9.93a4 4 0 0 1 .06-.57c.05-.33.17-.8.41-1.28A3.7 3.7 0 0 1 12 6q1.34.01 2.28.64c.61.41 1 .95 1.25 1.44A5 5 0 0 1 16 9.92zm-7 0c0 .28.22.5.5.5h5a.5.5 0 0 0 .5-.5V9.96l-.05-.43a4 4 0 0 0-.32-1 3 3 0 0 0-.9-1.06A3 3 0 0 0 12 7q-1.06.02-1.72.47c-.44.3-.73.68-.91 1.06A4 4 0 0 0 9 9.96z"/>
    </g>
    <path fill="url(#j)" d="M9.5 15h5a.5.5 0 0 0 .5-.5v-2a.5.5 0 0 0-.5-.5h-5a.5.5 0 0 0-.5.5v2c0 .28.22.5.5.5"/>
    <path stroke="url(#k)" stroke-linejoin="round" d="M14.5 12.5h-5v2h5z" opacity=".5"/>
    <path stroke="url(#l)" d="M14.5 11.5h-5a1 1 0 0 0-1 1v2a1 1 0 0 0 1 1h5a1 1 0 0 0 1-1v-2a1 1 0 0 0-1-1Z"/>
    <path fill="url(#m)" d="M14.5 13a.5.5 0 1 0 0-1zm-5-.5v.5h5v-1h-5z" opacity=".2"/>
    <g opacity=".05">
      <mask id="n" fill="#fff">
        <path d="M14.5 11.5h-5a1 1 0 0 0-1 1v2a1 1 0 0 0 1 1h5a1 1 0 0 0 1-1v-2a1 1 0 0 0-1-1"/>
      </mask>
      <path stroke="#000" d="M14.5 11.5h-5a1 1 0 0 0-1 1v2a1 1 0 0 0 1 1h5a1 1 0 0 0 1-1v-2a1 1 0 0 0-1-1Z" mask="url(#n)"/>
    </g>
    <path stroke="url(#o)" stroke-linecap="square" d="M9.5 13.5h5" opacity=".05"/>
    <path fill="url(#p)" d="M14 14c0 .55-.22 1-.5 1s-.5-.45-.5-1v-1c0-.55.22-1 .5-1s.5.45.5 1z" opacity=".5"/>
    <path fill="url(#q)" d="M11 14c0 .55-.22 1-.5 1s-.5-.45-.5-1v-1c0-.55.22-1 .5-1s.5.45.5 1z" opacity=".5"/>
    <path fill="url(#r)" d="M10 12.5a.5.5 0 0 0-1 0v2a.5.5 0 0 0 1 0z" opacity=".5"/>
    <path fill="url(#s)" d="M15 12.5a.5.5 0 0 0-1 0v2a.5.5 0 0 0 1 0z" opacity=".5"/>
    <mask id="t" width="4" height="16" x="0" y="0" fill="#000" maskUnits="userSpaceOnUse">
      <path fill="#fff" d="M0 0h4v16H0z"/>
      <path d="M3 14.5a.5.5 0 0 1-.5.5h-1a.5.5 0 0 1-.5-.5v-1c0-.28.22-.5.5-.5h1c.28 0 .5.22.5.5zM2 7a1 1 0 1 1 0 2 1 1 0 0 1 0-2m1-4.5a.5.5 0 0 1-.5.5h-1a.5.5 0 0 1-.5-.5v-1c0-.28.22-.5.5-.5h1c.28 0 .5.22.5.5z"/>
    </mask>
    <path fill="#fff" d="M3 14.5a.5.5 0 0 1-.5.5h-1a.5.5 0 0 1-.5-.5v-1c0-.28.22-.5.5-.5h1c.28 0 .5.22.5.5zM2 7a1 1 0 1 1 0 2 1 1 0 0 1 0-2m1-4.5a.5.5 0 0 1-.5.5h-1a.5.5 0 0 1-.5-.5v-1c0-.28.22-.5.5-.5h1c.28 0 .5.22.5.5z"/>
    <path stroke="#717171" stroke-width="2" d="M3 14.5a.5.5 0 0 1-.5.5h-1a.5.5 0 0 1-.5-.5v-1c0-.28.22-.5.5-.5h1c.28 0 .5.22.5.5z" mask="url(#t)"/>
    <path stroke="#717171" stroke-width="2" d="M2 7a1 1 0 1 1 0 2 1 1 0 0 1 0-2Z" mask="url(#t)"/>
    <path stroke="#717171" stroke-width="2" d="M3 2.5a.5.5 0 0 1-.5.5h-1a.5.5 0 0 1-.5-.5v-1c0-.28.22-.5.5-.5h1c.28 0 .5.22.5.5z" mask="url(#t)"/>
    <path fill="#717171" d="M1 9h1v4H1zm0-6h1v4H1z"/>
  </g>
  <defs>
    <linearGradient id="b" x1="5" x2="6.5" y1="3.5" y2="3.5" gradientUnits="userSpaceOnUse">
      <stop stop-color="#717171"/>
      <stop offset="1" stop-color="#202020" stop-opacity=".6"/>
    </linearGradient>
    <linearGradient id="d" x1="6.99" x2="7.99" y1="6.5" y2="9" gradientUnits="userSpaceOnUse">
      <stop stop-color="#ffed88"/>
      <stop offset="1" stop-color="#e6a92a"/>
    </linearGradient>
    <linearGradient id="g" x1="12" x2="12" y1="7.5" y2="12" gradientUnits="userSpaceOnUse">
      <stop stop-color="#fff"/>
      <stop offset="1" stop-color="#e0e0e0"/>
    </linearGradient>
    <linearGradient id="i" x1="12" x2="12" y1="7.5" y2="12" gradientUnits="userSpaceOnUse">
      <stop stop-color="#fff"/>
      <stop offset="1" stop-color="#b0b0b0"/>
    </linearGradient>
    <linearGradient id="k" x1="12.73" x2="12.73" y1="8.66" y2="14.25" gradientUnits="userSpaceOnUse">
      <stop stop-color="#fff"/>
      <stop offset=".03" stop-color="#fff" stop-opacity=".24"/>
      <stop offset=".99" stop-color="#fff" stop-opacity=".16"/>
      <stop offset="1" stop-color="#fff" stop-opacity=".39"/>
    </linearGradient>
    <linearGradient id="l" x1="12.31" x2="12.31" y1="12" y2="16" gradientUnits="userSpaceOnUse">
      <stop stop-color="#a4885f"/>
      <stop offset="1" stop-color="#a08358" stop-opacity=".5"/>
    </linearGradient>
    <linearGradient id="m" x1="17.31" x2="3.63" y1="6.5" y2="6.5" gradientUnits="userSpaceOnUse">
      <stop stop-color="#fff"/>
      <stop offset="1" stop-color="#fff" stop-opacity="0"/>
    </linearGradient>
    <linearGradient id="o" x1="17.31" x2="3.63" y1="13.5" y2="13.5" gradientUnits="userSpaceOnUse">
      <stop/>
      <stop offset="1" stop-opacity="0"/>
    </linearGradient>
    <linearGradient id="p" x1="13.83" x2="13.83" y1="8" y2="15" gradientUnits="userSpaceOnUse">
      <stop stop-color="#fff"/>
      <stop offset="1" stop-color="#fff" stop-opacity="0"/>
    </linearGradient>
    <linearGradient id="q" x1="10.83" x2="10.83" y1="8" y2="15" gradientUnits="userSpaceOnUse">
      <stop stop-color="#fff"/>
      <stop offset="1" stop-color="#fff" stop-opacity="0"/>
    </linearGradient>
    <linearGradient id="r" x1="9.83" x2="9.83" y1="15" y2="8" gradientUnits="userSpaceOnUse">
      <stop stop-color="#d88f22"/>
      <stop offset="1" stop-color="#d88f22" stop-opacity="0"/>
    </linearGradient>
    <linearGradient id="s" x1="14.83" x2="14.83" y1="15" y2="8" gradientUnits="userSpaceOnUse">
      <stop stop-color="#d88f22"/>
      <stop offset="1" stop-color="#d88f22" stop-opacity="0"/>
    </linearGradient>
    <radialGradient id="f" cx="0" cy="0" r="1" gradientTransform="matrix(0 7 -1 0 6.92 14.49)" gradientUnits="userSpaceOnUse">
      <stop stop-color="#2d73cf"/>
      <stop offset="1" stop-color="#7ec7f8"/>
    </radialGradient>
    <radialGradient id="j" cx="0" cy="0" r="1" gradientTransform="matrix(0 9 -12 0 10 8.25)" gradientUnits="userSpaceOnUse">
      <stop stop-color="#f2e0c4"/>
      <stop offset=".76" stop-color="#e5af5b"/>
      <stop offset="1" stop-color="#af6900"/>
    </radialGradient>
    <clipPath id="a">
      <path fill="#fff" d="M0 0h16v16H0z"/>
    </clipPath>
  </defs>
</svg>
