<svg xmlns="http://www.w3.org/2000/svg" width="16" height="16" fill="none" viewBox="0 0 16 16"><g clip-path="url(#a)"><path fill="url(#b)" fill-rule="evenodd" stroke="#673907" stroke-linecap="round" stroke-width=".49912" d="m7.98278 8.59669-1.3753-.84241C9.08697 4.43157 13.8118.8938 13.8118.8938c.41688-.30723.9059-.12187.64424.36142a42 42 0 0 1-.05514.1015c-.30317.55635-1.28584 2.33443-2.5705 4.40196-1.2695.02816-2.22691.52785-2.9004 1.22307-.41438.45966-.71548.9342-.94722 1.61494Z" clip-rule="evenodd" style="display:inline"/><path fill="url(#c)" d="M6.80307 7.89623q-10.2046-11.84434 0 0m7.4671-6.897c-.08548-.0255-.19861.00947-.29992.08551.20177.19924.2169-.06185.29992-.08552M8.875 7.03905l-.18281-.17094-.00767.00903Zm2.3359-1.22656.0395.24686.1096-.01752.0605-.09296Zm2.95399-4.75244-.19463.02468c-1.02946.7855-2.11106 1.67949-3.36326 2.79361-1.24261 1.10564-2.5645 2.39053-3.80393 4.01788l.39777.30295c1.2123-1.59173 2.50819-2.85257 3.73856-3.94728 1.2208-1.08625 2.29182-2.07067 3.18965-3.03683ZM11.2109 5.8125l-.0395-.24686c-1.0716.17147-1.8812.66335-2.47901 1.30267l.18261.17075.18261.17075c.52719-.5638 1.23819-.9977 2.19279-1.15045ZM8.10612 8.33216l-.99024-.50698Zm3.31438-2.38328c.8625-1.32516 1.4095-2.31494 1.8292-3.06394.29181-.49825.66617-1.16006.96988-1.7155.3663-.68986-1.09133.91846-1.40598 1.47107-.4198.74899-.9596 1.72577-1.8122 3.03561.13967.09097.2794.18184.4191.27276M9.06548 7.20097 8.875 7.03906l-.19048-.16191c-.4171.4907-.6821.9301-.92677 1.59071.78529.27936.84242-.62325 1.30773-1.26689" opacity=".33333" style="display:inline"/><path fill="url(#d)" fill-rule="evenodd" stroke="#888a85" stroke-linecap="round" stroke-width=".49912" d="m5.94194 13.1367-1.66727-1.5564 2.13565-3.54287c.89167-.1742.99222-.16741 1.71077.18525-.16015.33203-.35195 1.1891-.37027 1.65612l.00458.261c-.58606.3663-.96151.989-.99811 1.7423z" clip-rule="evenodd" style="display:inline"/><path stroke="#fff" stroke-linecap="round" stroke-linejoin="round" stroke-width=".49912" d="M6.97899 8.69431 5.34647 11.5348" style="display:inline"/><path fill="url(#e)" fill-rule="evenodd" d="M2.67325 12.6167C2.20793 13.8104 1.69432 15.1279 0 15.1273c.25763.9979 4.15292 1.2404 5.76779.1964.48295-.3122.9692-.967 1.23221-1.701v-1.5914c0-.1093.00861-.2163.02516-.3205-.44626-.8875-1.90827-1.6809-3.30716-.8069-.49853.3115-.76277.9894-1.04475 1.7128" clip-rule="evenodd" style="display:inline"/><path fill="#fff" d="M4.9609 12.882c.42023 0 .7609-.3322.7609-.7419 0-.4098-.34067-.7419-.7609-.7419-.42022 0-.76089.3321-.76089.7419 0 .4097.34067.7419.76089.7419" opacity=".52778" style="display:inline"/><path stroke="url(#f)" d="M9.49988 12v-2s-.00005-2.5 2.49992-2.5c2.5001 0 2.5001 2.5 2.5001 2.5v2" opacity=".6" style="display:inline"/><path stroke="url(#g)" stroke-linecap="round" stroke-width=".5" d="M9.49988 9.99997s-.00001-.46858.20283-1C9.89507 8.49602 10.2698 7.93556 11 7.66455" style="display:inline"/><g fill="#000" fill-rule="evenodd" clip-rule="evenodd" opacity=".4" style="display:inline"><path d="M13.9999 12H9.99988V9.98828c.00042-.01244.00192-.0333.00392-.06055a2.52 2.52 0 0 1 .0283-.23632c.0336-.2016.1-.4627.2275-.71778.1266-.25317.3087-.4912.5723-.66699.2606-.1737.6305-.30664 1.168-.30664s.9074.13295 1.1679.30664c.2637.17579.4457.41383.5723.66699.1276.25507.1939.51617.2276.71778a2.59 2.59 0 0 1 .0283.23632c.0019.02724.0035.04811.0039.06055zm-1-1v-.9912l-.001-.00978c-.0023-.03139-.0073-.08169-.0176-.14355-.0226-.13574-.0655-.29413-.1357-.43457-.0673-.13452-.1445-.2236-.2324-.28223C12.5344 9.08617 12.3621 9 11.9999 9c-.2717 0-.4366.04836-.5352.09473l-.0781.04394c-.088.05871-.1652.14786-.2324.28223-.0703.14054-.1131.29896-.1358.43457l-.0175.14355c-.0003.00368-.0008.00678-.001.00978V11Z"/><path d="M15.9999 14.5c0 .8284-.6716 1.5-1.5 1.5H9.49988c-.82837-.0001-1.5-.6716-1.5-1.5V9.96777c.00013-.00806.00082-.01551.00097-.0205.00016-.00491-.00011-.00962 0-.0127.00029-.00786.00086-.00895.00098-.01269a3.5 3.5 0 0 1 .00684-.13575c.00786-.11005.02281-.25493.05078-.42285.05539-.33239.1688-.79948.41113-1.28418.24521-.49045.63685-1.02642 1.25195-1.43652C10.3472 6.22614 11.1126 6 11.9999 6c.8874 0 1.6527.22621 2.2773.64258.6152.41014 1.0068.94619 1.252 1.43652.2424.48478.3557.95187.4111 1.28418.028.16799.0429.31286.0508.42285.0042.05973.0059.10812.0068.13575.0002.00375.0007.00484.001.01269.0001.00308-.0001.0078 0 .0127.0002.005.0008.01245.001.0205zm-7.00002 0c0 .2761.22391.4999.5.5h5.00002c.2761 0 .5-.2239.5-.5V9.98438c-.0001-.00746-.0006-.0174-.001-.0293a2.5 2.5 0 0 0-.0049-.09766c-.0058-.08162-.0176-.19539-.04-.33008-.0445-.26712-.1344-.63111-.3194-1.00097-.1859-.37181-.4726-.75882-.9121-1.05176C13.28 7.17959 12.7124 7 11.9999 7s-1.2801.17957-1.7227.47461c-.43938.29295-.7262.67995-.91209 1.05176-.18491.36985-.27482.73386-.31933 1.00097-.02244.13468-.03421.24846-.04004.33008a2.5 2.5 0 0 0-.00489.09766c-.00039.0119-.00085.02184-.00097.0293Z"/></g><path fill="url(#h)" d="M9.5 15h5c.2761 0 .5-.2239.5-.5v-2c0-.2761-.2239-.5-.5-.5h-5c-.27614 0-.5.2239-.5.5v2c0 .2761.22386.5.5.5" style="display:inline"/><path stroke="url(#i)" stroke-linejoin="round" d="M14.5 12.5h-5v2h5z" opacity=".5" style="display:inline"/><path stroke="url(#j)" d="M14.5 11.5h-5c-.55228 0-1 .4477-1 1v2c0 .5523.44772 1 1 1h5c.5523 0 1-.4477 1-1v-2c0-.5523-.4477-1-1-1z" style="display:inline"/><path fill="url(#k)" d="M14.5 12.9995c.2762 0 .5-.2239.5-.5 0-.2762-.2239-.5-.5-.5v.5zm-5-.4996.00004.5L14.5 12.9995v-1l-5.00004.0004z" opacity=".2" style="display:inline"/><path stroke="url(#l)" stroke-linecap="square" d="M9.5 13.5h5" opacity=".05" style="display:inline"/><path fill="url(#m)" d="M14 14c0 .5523-.2239 1-.5 1s-.5-.4477-.5-1v-1.0001c0-.5523.2239-1 .5-1s.5.4477.5 1z" opacity=".5" style="display:inline"/><path fill="url(#n)" d="M11 14c0 .5523-.2239 1-.5 1s-.5-.4477-.5-1v-1.0001c0-.5523.2239-1 .5-1s.5.4477.5 1z" opacity=".5" style="display:inline"/><path fill="url(#o)" d="M10 12.5c0-.2761-.22386-.5-.5-.5s-.5.2239-.5.5v2c0 .2761.22386.5.5.5s.5-.2239.5-.5Z" opacity=".5" style="display:inline"/><path fill="url(#p)" d="M15 12.5c0-.2761-.2239-.5-.5-.5s-.5.2239-.5.5v2c0 .2761.2239.5.5.5s.5-.2239.5-.5z" opacity=".5" style="display:inline"/></g><defs><linearGradient id="b" x1="9.25699" x2="11.4582" y1="4.79175" y2="7.06291" gradientUnits="userSpaceOnUse"><stop stop-color="#6e3d09"/><stop offset=".25" stop-color="#ea8113"/><stop offset=".62121" stop-color="#5c3307"/><stop offset="1" stop-color="#e07c12"/></linearGradient><linearGradient id="c" x1="9.03026" x2="9.52188" y1="5.35582" y2="5.84744" gradientUnits="userSpaceOnUse"><stop stop-color="#fff" stop-opacity=".5"/><stop offset="1" stop-color="#fff"/></linearGradient><linearGradient id="d" x1="5.80198" x2="8.73226" y1="8.70586" y2="10.4883" gradientUnits="userSpaceOnUse"><stop stop-color="#bdbdbd"/><stop offset=".33333" stop-color="#e2e2e2"/><stop offset=".66667" stop-color="#a3a3a3"/><stop offset="1" stop-color="#ddd"/></linearGradient><linearGradient id="f" x1="11.9999" x2="11.9999" y1="7.5" y2="12" gradientUnits="userSpaceOnUse"><stop stop-color="#fff"/><stop offset="1" stop-color="#e0e0e0"/></linearGradient><linearGradient id="g" x1="11.9999" x2="11.9999" y1="7.5" y2="12" gradientUnits="userSpaceOnUse"><stop stop-color="#fff"/><stop offset="1" stop-color="#b0b0b0"/></linearGradient><linearGradient id="i" x1="12.7338" x2="12.7338" y1="8.65918" y2="14.2534" gradientUnits="userSpaceOnUse"><stop stop-color="#fff"/><stop offset=".03252" stop-color="#fff" stop-opacity=".23529"/><stop offset=".98559" stop-color="#fff" stop-opacity=".15686"/><stop offset="1" stop-color="#fff" stop-opacity=".39216"/></linearGradient><linearGradient id="j" x1="12.3144" x2="12.3144" y1="12" y2="16" gradientUnits="userSpaceOnUse"><stop stop-color="#a4885f"/><stop offset="1" stop-color="#a08358" stop-opacity=".5"/></linearGradient><linearGradient id="k" x1="17.3112" x2="3.62764" y1="6.49989" y2="6.49989" gradientUnits="userSpaceOnUse"><stop stop-color="#fff"/><stop offset="1" stop-color="#fff" stop-opacity="0"/></linearGradient><linearGradient id="l" x1="17.3112" x2="3.62764" y1="13.5" y2="13.5" gradientUnits="userSpaceOnUse"><stop/><stop offset="1" stop-opacity="0"/></linearGradient><linearGradient id="m" x1="13.8333" x2="13.8333" y1="7.99986" y2="15" gradientUnits="userSpaceOnUse"><stop stop-color="#fff"/><stop offset="1" stop-color="#fff" stop-opacity="0"/></linearGradient><linearGradient id="n" x1="10.8333" x2="10.8333" y1="7.99986" y2="15" gradientUnits="userSpaceOnUse"><stop stop-color="#fff"/><stop offset="1" stop-color="#fff" stop-opacity="0"/></linearGradient><linearGradient id="o" x1="9.83333" x2="9.83333" y1="15" y2="8" gradientUnits="userSpaceOnUse"><stop stop-color="#d88f22"/><stop offset="1" stop-color="#d88f22" stop-opacity="0"/></linearGradient><linearGradient id="p" x1="14.8333" x2="14.8333" y1="15" y2="8" gradientUnits="userSpaceOnUse"><stop stop-color="#d88f22"/><stop offset="1" stop-color="#d88f22" stop-opacity="0"/></linearGradient><radialGradient id="e" cx="0" cy="0" r="1" gradientTransform="matrix(2 0 0 2 5 12.3812)" gradientUnits="userSpaceOnUse"><stop stop-color="#696969"/><stop offset="1"/></radialGradient><radialGradient id="h" cx="0" cy="0" r="1" gradientTransform="matrix(0 8.5 -12 0 10 8.25)" gradientUnits="userSpaceOnUse"><stop stop-color="#f2e0c4"/><stop offset=".76471" stop-color="#e5af5b"/><stop offset="1" stop-color="#af6900"/></radialGradient><clipPath id="a"><path fill="#fff" d="M0 0h16v16H0z"/></clipPath></defs></svg>