<svg xmlns="http://www.w3.org/2000/svg" width="16" height="16" fill="none" viewBox="0 0 16 16"><path fill="#b7c8b6" fill-rule="evenodd" d="M8 2C5.22 2 2.52 3.77.62 7.02c-.2.36-.1.75.16 1a1 1 0 0 1 .16-.63C2.74 4.32 5.31 2.61 8 2.61s5.27 1.71 7.06 4.78q.2.3.16.66a.8.8 0 0 0 .16-1.03C13.48 3.77 10.78 2 8 2m.02 8.04c-.47.1-.85.5-.97 1.02a9.4 9.4 0 0 1-5.03-2.11 1 1 0 0 0 .69-.53 9 9 0 0 1 2.01-2.46v.03q-.05.23-.05.45a3.36 3.36 0 0 0 3.38 3.32zm-.89-5.3a5 5 0 0 0-1.11.37 1.13 1.13 0 0 0 .05 1.52c.2.21.49.34.79.34A1.13 1.13 0 0 0 8 5.87v-.03a1.1 1.1 0 0 0-.87-1.1" clip-rule="evenodd"/><path fill="#b7c8b6" fill-rule="evenodd" d="M.62 7.03C2.52 3.77 5.22 2 8 2s5.49 1.77 7.38 5.03c.16.27.15.62-.03.88a3.9 3.9 0 0 0-2.7-1.86C11.23 4.42 9.6 3.66 8 3.66c-2.08 0-4.25 1.3-5.94 4.2a.83.83 0 1 1-1.44-.83" clip-rule="evenodd"/><path fill="#b7c8b6" fill-rule="evenodd" d="M1.31 6.82a.61.61 0 0 0-.43 1.03 9.5 9.5 0 0 0 6.16 3.22c.13-.52.5-.92.98-1.03l.01-.12A8.2 8.2 0 0 1 1.8 7.04a.6.6 0 0 0-.49-.22m13.92.9c.29-.5-.25-1.13-.8-.87q.48.38.8.86" clip-rule="evenodd"/><path fill="#b7c8b6" d="M8 12.03c0-.56.45-1 1-1.02l1.54-.01H15c.55.02 1 .47 1 1.03V15c0 .54-.48 1-1 1H9c-.5 0-1-.48-1-1z"/><path d="M12 6.97c-.96 0-1.77.48-2.27 1.11s-.74 1.41-.74 2.17V11h1.55v-.75c0-.41.16-.89.4-1.21.26-.32.57-.52 1.06-.51.5 0 .81.18 1.06.49.24.3.4.77.4 1.23V11H15v-.75c0-.79-.24-1.57-.74-2.2A2.9 2.9 0 0 0 12 6.97" style="baseline-shift:baseline;display:inline;overflow:visible;vector-effect:none;fill:#b7c8b6;stroke-linejoin:round;stop-color:#000;stop-opacity:1;opacity:1"/></svg>