<svg xmlns="http://www.w3.org/2000/svg" width="16" height="16" fill="none" viewBox="0 0 16 16">
  <g clip-path="url(#a)">
    <path fill="#bebebe" d="M6 6v3h2.137q-.05.2-.077.363a5 5 0 0 0-.058.559l-.001.013v.012L8 9.967v.3A2 2 0 0 0 7 12H6V9H3v3H1a1 1 0 0 1-1-1V9h3V6zm5.762.007h-.02c-.778.04-1.456.26-2.02.636a3.6 3.6 0 0 0-.722.64V6h2.998q-.12 0-.236.007M3 6H0V3h3zm6 0H6V3h3zM6 3H3V0h3zm5-3a1 1 0 0 1 1 1v2H9V0z"/>
    <path fill="#bebebe" d="M6 12H3V9h3zM3 9H0V6h3zm3-3H3V3h3zm6 0H9V3h3zM3 3H0V1a1 1 0 0 1 1-1h2zm6 0H6V0h3zm0 3v1.283a4 4 0 0 0-.53.796A4.4 4.4 0 0 0 8.138 9H6V6z" opacity=".3"/>
    <path stroke="url(#b)" d="M9.5 12v-2s0-2.5 2.5-2.5 2.5 2.5 2.5 2.5v2" opacity=".6"/>
    <g opacity=".4">
      <mask id="c" fill="#fff">
        <path d="M12 7c.712 0 1.28.18 1.723.475.439.293.726.68.912 1.051a3.6 3.6 0 0 1 .364 1.43v.043L15 12H9V9.955l.006-.098a3.6 3.6 0 0 1 .36-1.331 2.7 2.7 0 0 1 .911-1.051C10.72 7.18 11.287 7 12 7"/>
      </mask>
      <path stroke="#fff" stroke-linecap="round" d="M12 7c.712 0 1.28.18 1.723.475.439.293.726.68.912 1.051a3.6 3.6 0 0 1 .364 1.43v.043L15 12H9V9.955l.006-.098a3.6 3.6 0 0 1 .36-1.331 2.7 2.7 0 0 1 .911-1.051C10.72 7.18 11.287 7 12 7Z" mask="url(#c)"/>
    </g>
    <path stroke="url(#d)" stroke-linecap="round" stroke-width=".5" d="M9.5 10s0-.469.203-1c.192-.504.567-1.064 1.297-1.335"/>
    <g fill="#000" fill-rule="evenodd" clip-rule="evenodd" opacity=".4">
      <path d="M14 12h-4V9.988l.004-.06a2.6 2.6 0 0 1 .256-.954c.126-.254.308-.492.572-.667.26-.174.63-.307 1.168-.307s.907.133 1.168.307c.264.175.446.413.572.667a2.6 2.6 0 0 1 .256.954l.004.06zm-1-1v-.991l-.001-.01a1.6 1.6 0 0 0-.153-.578.7.7 0 0 0-.233-.282C12.534 9.086 12.363 9 12 9c-.272 0-.437.048-.535.095l-.078.044a.7.7 0 0 0-.233.282c-.07.14-.113.299-.136.434l-.017.144-.001.01V11z"/>
      <path d="M16 14.5a1.5 1.5 0 0 1-1.5 1.5h-5A1.5 1.5 0 0 1 8 14.5V9.935l.002-.013a5 5 0 0 1 .058-.559c.055-.332.168-.8.41-1.284a3.7 3.7 0 0 1 1.253-1.436C10.347 6.226 11.113 6 12 6s1.653.226 2.277.643c.615.41 1.007.946 1.252 1.436a4.6 4.6 0 0 1 .469 1.843v.025l.002.02zm-7 0a.5.5 0 0 0 .5.5h5a.5.5 0 0 0 .5-.5V9.984l-.001-.029q0-.036-.005-.098a3.6 3.6 0 0 0-.36-1.331 2.7 2.7 0 0 0-.912-1.051C13.28 7.18 12.713 7 12 7s-1.28.18-1.723.475c-.44.293-.726.68-.912 1.051a3.6 3.6 0 0 0-.364 1.43L9 9.983z"/>
    </g>
    <path fill="url(#e)" d="M9.5 15h5a.5.5 0 0 0 .5-.5v-2a.5.5 0 0 0-.5-.5h-5a.5.5 0 0 0-.5.5v2a.5.5 0 0 0 .5.5"/>
    <path stroke="url(#f)" stroke-linejoin="round" d="M14.5 12.5h-5v2h5z" opacity=".5"/>
    <path stroke="url(#g)" d="M14.5 11.5h-5a1 1 0 0 0-1 1v2a1 1 0 0 0 1 1h5a1 1 0 0 0 1-1v-2a1 1 0 0 0-1-1Z"/>
    <path fill="url(#h)" d="M14.5 13a.5.5 0 1 0 0-1zm-5-.5v.5h5v-1h-5z" opacity=".2"/>
    <g opacity=".05">
      <mask id="i" fill="#fff">
        <path d="M14.5 11.5h-5a1 1 0 0 0-1 1v2a1 1 0 0 0 1 1h5a1 1 0 0 0 1-1v-2a1 1 0 0 0-1-1"/>
      </mask>
      <path stroke="#000" d="M14.5 11.5h-5a1 1 0 0 0-1 1v2a1 1 0 0 0 1 1h5a1 1 0 0 0 1-1v-2a1 1 0 0 0-1-1Z" mask="url(#i)"/>
    </g>
    <path stroke="url(#j)" stroke-linecap="square" d="M9.5 13.5h5" opacity=".05"/>
    <path fill="url(#k)" d="M14 14c0 .552-.224 1-.5 1s-.5-.448-.5-1v-1c0-.552.224-1 .5-1s.5.448.5 1z" opacity=".5"/>
    <path fill="url(#l)" d="M11 14c0 .552-.224 1-.5 1s-.5-.448-.5-1v-1c0-.552.224-1 .5-1s.5.448.5 1z" opacity=".5"/>
    <path fill="url(#m)" d="M10 12.5a.5.5 0 0 0-1 0v2a.5.5 0 0 0 1 0z" opacity=".5"/>
    <path fill="url(#n)" d="M15 12.5a.5.5 0 0 0-1 0v2a.5.5 0 0 0 1 0z" opacity=".5"/>
  </g>
  <defs>
    <linearGradient id="b" x1="12" x2="12" y1="7.5" y2="12" gradientUnits="userSpaceOnUse">
      <stop stop-color="#fff"/>
      <stop offset="1" stop-color="#e0e0e0"/>
    </linearGradient>
    <linearGradient id="d" x1="12" x2="12" y1="7.5" y2="12" gradientUnits="userSpaceOnUse">
      <stop stop-color="#fff"/>
      <stop offset="1" stop-color="#b0b0b0"/>
    </linearGradient>
    <linearGradient id="f" x1="12.734" x2="12.734" y1="8.659" y2="14.253" gradientUnits="userSpaceOnUse">
      <stop stop-color="#fff"/>
      <stop offset=".033" stop-color="#fff" stop-opacity=".235"/>
      <stop offset=".986" stop-color="#fff" stop-opacity=".157"/>
      <stop offset="1" stop-color="#fff" stop-opacity=".392"/>
    </linearGradient>
    <linearGradient id="g" x1="12.314" x2="12.314" y1="12" y2="16" gradientUnits="userSpaceOnUse">
      <stop stop-color="#a4885f"/>
      <stop offset="1" stop-color="#a08358" stop-opacity=".5"/>
    </linearGradient>
    <linearGradient id="h" x1="17.311" x2="3.628" y1="6.5" y2="6.5" gradientUnits="userSpaceOnUse">
      <stop stop-color="#fff"/>
      <stop offset="1" stop-color="#fff" stop-opacity="0"/>
    </linearGradient>
    <linearGradient id="j" x1="17.311" x2="3.628" y1="13.5" y2="13.5" gradientUnits="userSpaceOnUse">
      <stop/>
      <stop offset="1" stop-opacity="0"/>
    </linearGradient>
    <linearGradient id="k" x1="13.833" x2="13.833" y1="8" y2="15" gradientUnits="userSpaceOnUse">
      <stop stop-color="#fff"/>
      <stop offset="1" stop-color="#fff" stop-opacity="0"/>
    </linearGradient>
    <linearGradient id="l" x1="10.833" x2="10.833" y1="8" y2="15" gradientUnits="userSpaceOnUse">
      <stop stop-color="#fff"/>
      <stop offset="1" stop-color="#fff" stop-opacity="0"/>
    </linearGradient>
    <linearGradient id="m" x1="9.833" x2="9.833" y1="15" y2="8" gradientUnits="userSpaceOnUse">
      <stop stop-color="#d88f22"/>
      <stop offset="1" stop-color="#d88f22" stop-opacity="0"/>
    </linearGradient>
    <linearGradient id="n" x1="14.833" x2="14.833" y1="15" y2="8" gradientUnits="userSpaceOnUse">
      <stop stop-color="#d88f22"/>
      <stop offset="1" stop-color="#d88f22" stop-opacity="0"/>
    </linearGradient>
    <radialGradient id="e" cx="0" cy="0" r="1" gradientTransform="matrix(0 9 -12 0 10 8.25)" gradientUnits="userSpaceOnUse">
      <stop stop-color="#f2e0c4"/>
      <stop offset=".765" stop-color="#e5af5b"/>
      <stop offset="1" stop-color="#af6900"/>
    </radialGradient>
    <clipPath id="a">
      <path fill="#fff" d="M0 0h16v16H0z"/>
    </clipPath>
  </defs>
</svg>
