<svg xmlns="http://www.w3.org/2000/svg" width="16" height="16" fill="none" viewBox="0 0 16 16">
  <g clip-path="url(#a)">
    <path fill="#000" d="M6 0c.43 0 .85.056 1.252.16C9.399.72 11 2.677 11 5v1.106q-.542.121-1 .37V5a4.02 4.02 0 0 0-2.683-3.775L7 1.128a4 4 0 0 0-2 0l-.317.097A4.02 4.02 0 0 0 2 5v3a1 1 0 0 0-1 1v3a1 1 0 0 0 1 1h5v1H1.5A1.5 1.5 0 0 1 0 12.5V9c0-.74.403-1.385 1-1.73V5C1 2.677 2.601.719 4.748.16 5.149.056 5.569 0 6 0" opacity=".4"/>
    <path fill="url(#b)" d="m8.513 8-.042.08a4.6 4.6 0 0 0-.469 1.842l-.001.013v.012L8 9.967v.536c-.606.456-1 1.18-1 1.997v.5H1.5a.5.5 0 0 1-.5-.5v-4a.5.5 0 0 1 .5-.5z"/>
    <path fill="url(#c)" d="M8.47 8.08a4.4 4.4 0 0 0-.333.92H2v3h5.05a2.5 2.5 0 0 0-.05.5v.5H1.5a.5.5 0 0 1-.5-.5v-4a.5.5 0 0 1 .5-.5h7.013z" opacity=".5"/>
    <path fill="url(#d)" d="M9.272 7a3.8 3.8 0 0 0-.76 1H1.5a.5.5 0 0 0-.5.5v4a.5.5 0 0 0 .5.5H7v1H1.5A1.5 1.5 0 0 1 0 12.5v-4A1.5 1.5 0 0 1 1.5 7z"/>
    <path fill="url(#e)" d="M8 9q.068.001.13.02a5 5 0 0 0-.121.766l-.007.136-.001.013v.012L8 9.967v.034H3V9z" opacity=".2"/>
    <path fill="#000" d="M8.47 8.08a4 4 0 0 0-.179.42H1.5v4H7v.5H1.5a.5.5 0 0 1-.5-.5v-4a.5.5 0 0 1 .5-.5h7.013z" opacity=".05"/>
    <path fill="url(#f)" d="M8 10.503a2.5 2.5 0 0 0-.498.497H2.5v-1H8z" opacity=".05"/>
    <path fill="url(#g)" d="M4 11c0 .553-.224 1-.5 1s-.5-.447-.5-1v-1c0-.552.224-1 .5-1s.5.448.5 1z" opacity=".5"/>
    <path fill="url(#h)" d="M3 9.5a.5.5 0 0 0-1 0v2a.5.5 0 0 0 1 0z" opacity=".5"/>
    <path fill="url(#i)" d="M7.5 9c.276 0 .5.448.5 1v.503a2.5 2.5 0 0 0-.863 1.182A1.65 1.65 0 0 1 7 11v-1c0-.552.224-1 .5-1" opacity=".5"/>
    <g opacity=".6">
      <path fill="url(#j)" d="M6 1q.518.002 1 .128c1.721.448 3 2.02 3 3.872v1.477A3.6 3.6 0 0 0 9.272 7H8V5a2.02 2.02 0 0 0-1.504-1.937 2 2 0 0 0-.992 0A2.02 2.02 0 0 0 4 5v2H2V5a4.02 4.02 0 0 1 3-3.872Q5.482 1.002 6 1"/>
      <path fill="#272727" d="M6 1q.518.002 1 .128c1.721.448 3 2.02 3 3.872v1.477A3.6 3.6 0 0 0 9.272 7H8V5a2.02 2.02 0 0 0-1.504-1.937 2 2 0 0 0-.992 0A2.02 2.02 0 0 0 4 5v2H2V5a4.02 4.02 0 0 1 3-3.872Q5.482 1.002 6 1"/>
    </g>
    <path fill="url(#k)" d="M6 1q.518.002 1 .128c1.721.448 3 2.02 3 3.872v1.477A3.6 3.6 0 0 0 9.272 7H9V5a3.02 3.02 0 0 0-2.252-2.904 3 3 0 0 0-1.496 0A3.02 3.02 0 0 0 3 5v2H2V5a4.02 4.02 0 0 1 3-3.872Q5.482 1.002 6 1" opacity=".6"/>
    <path fill="#fff" d="M6 1q.518.002 1 .128c1.721.448 3 2.02 3 3.872v1.477a3.6 3.6 0 0 0-.5.326V5A3.476 3.476 0 0 0 6 1.5 3.476 3.476 0 0 0 2.5 5v2H2V5a4.02 4.02 0 0 1 3-3.872Q5.482 1.002 6 1" opacity=".4"/>
    <path stroke="url(#l)" d="M9.5 12v-2s0-2.5 2.5-2.5 2.5 2.5 2.5 2.5v2" opacity=".6"/>
    <g opacity=".4">
      <mask id="m" fill="#fff">
        <path d="M12 7c.712 0 1.28.18 1.723.475.439.293.726.68.912 1.051a3.6 3.6 0 0 1 .364 1.43v.043L15 12H9V9.955l.006-.098a3.6 3.6 0 0 1 .36-1.331 2.7 2.7 0 0 1 .911-1.051C10.72 7.18 11.287 7 12 7"/>
      </mask>
      <path stroke="#fff" stroke-linecap="round" d="M12 7c.712 0 1.28.18 1.723.475.439.293.726.68.912 1.051a3.6 3.6 0 0 1 .364 1.43v.043L15 12H9V9.955l.006-.098a3.6 3.6 0 0 1 .36-1.331 2.7 2.7 0 0 1 .911-1.051C10.72 7.18 11.287 7 12 7Z" mask="url(#m)"/>
    </g>
    <path stroke="url(#n)" stroke-linecap="round" stroke-width=".5" d="M9.5 10s0-.469.203-1c.192-.504.567-1.064 1.297-1.335"/>
    <g fill="#000" fill-rule="evenodd" clip-rule="evenodd" opacity=".4">
      <path d="M14 12h-4V9.988l.004-.06a2.6 2.6 0 0 1 .256-.954c.126-.254.308-.492.572-.667.26-.174.63-.307 1.168-.307s.907.133 1.168.307c.264.175.446.413.572.667a2.6 2.6 0 0 1 .256.954l.004.06zm-1-1v-.991l-.001-.01a1.6 1.6 0 0 0-.153-.578.7.7 0 0 0-.233-.282C12.534 9.086 12.363 9 12 9c-.272 0-.437.048-.535.095l-.078.044a.7.7 0 0 0-.233.282c-.07.14-.113.299-.136.434l-.017.144-.001.01V11z"/>
      <path d="M16 14.5a1.5 1.5 0 0 1-1.5 1.5h-5A1.5 1.5 0 0 1 8 14.5V9.935l.002-.013a5 5 0 0 1 .058-.559c.055-.332.168-.8.41-1.284a3.7 3.7 0 0 1 1.253-1.436C10.347 6.226 11.113 6 12 6s1.653.226 2.277.643c.615.41 1.007.946 1.252 1.436a4.6 4.6 0 0 1 .469 1.843v.025l.002.02zm-7 0a.5.5 0 0 0 .5.5h5a.5.5 0 0 0 .5-.5V9.984l-.001-.029q0-.036-.005-.098a3.6 3.6 0 0 0-.36-1.331 2.7 2.7 0 0 0-.912-1.051C13.28 7.18 12.713 7 12 7s-1.28.18-1.723.475c-.44.293-.726.68-.912 1.051a3.6 3.6 0 0 0-.364 1.43L9 9.983z"/>
    </g>
    <path fill="url(#o)" d="M9.5 15h5a.5.5 0 0 0 .5-.5v-2a.5.5 0 0 0-.5-.5h-5a.5.5 0 0 0-.5.5v2a.5.5 0 0 0 .5.5"/>
    <path stroke="url(#p)" stroke-linejoin="round" d="M14.5 12.5h-5v2h5z" opacity=".5"/>
    <path stroke="url(#q)" d="M14.5 11.5h-5a1 1 0 0 0-1 1v2a1 1 0 0 0 1 1h5a1 1 0 0 0 1-1v-2a1 1 0 0 0-1-1Z"/>
    <path fill="url(#r)" d="M14.5 13a.5.5 0 1 0 0-1zm-5-.5v.5h5v-1h-5z" opacity=".2"/>
    <g opacity=".05">
      <mask id="s" fill="#fff">
        <path d="M14.5 11.5h-5a1 1 0 0 0-1 1v2a1 1 0 0 0 1 1h5a1 1 0 0 0 1-1v-2a1 1 0 0 0-1-1"/>
      </mask>
      <path stroke="#000" d="M14.5 11.5h-5a1 1 0 0 0-1 1v2a1 1 0 0 0 1 1h5a1 1 0 0 0 1-1v-2a1 1 0 0 0-1-1Z" mask="url(#s)"/>
    </g>
    <path stroke="url(#t)" stroke-linecap="square" d="M9.5 13.5h5" opacity=".05"/>
    <path fill="url(#u)" d="M14 14c0 .552-.224 1-.5 1s-.5-.448-.5-1v-1c0-.552.224-1 .5-1s.5.448.5 1z" opacity=".5"/>
    <path fill="url(#v)" d="M11 14c0 .552-.224 1-.5 1s-.5-.448-.5-1v-1c0-.552.224-1 .5-1s.5.448.5 1z" opacity=".5"/>
    <path fill="url(#w)" d="M10 12.5a.5.5 0 0 0-1 0v2a.5.5 0 0 0 1 0z" opacity=".5"/>
    <path fill="url(#x)" d="M15 12.5a.5.5 0 0 0-1 0v2a.5.5 0 0 0 1 0z" opacity=".5"/>
  </g>
  <defs>
    <linearGradient id="c" x1="5.859" x2="5.859" y1="-1.602" y2="12.383" gradientUnits="userSpaceOnUse">
      <stop stop-color="#fff"/>
      <stop offset=".033" stop-color="#fff" stop-opacity=".235"/>
      <stop offset=".986" stop-color="#fff" stop-opacity=".157"/>
      <stop offset="1" stop-color="#fff" stop-opacity=".392"/>
    </linearGradient>
    <linearGradient id="d" x1="5.053" x2="5.053" y1="7.875" y2="14.875" gradientUnits="userSpaceOnUse">
      <stop stop-color="#a4885f"/>
      <stop offset="1" stop-color="#a08358" stop-opacity=".5"/>
    </linearGradient>
    <linearGradient id="e" x1="11.016" x2="-3.026" y1="-15837.5" y2="-15837.5" gradientUnits="userSpaceOnUse">
      <stop stop-color="#fff"/>
      <stop offset="1" stop-color="#fff" stop-opacity="0"/>
    </linearGradient>
    <linearGradient id="f" x1="11.092" x2="-3.96" y1="10" y2="10" gradientUnits="userSpaceOnUse">
      <stop/>
      <stop offset="1" stop-opacity="0"/>
    </linearGradient>
    <linearGradient id="g" x1="3.833" x2="3.833" y1="5" y2="12" gradientUnits="userSpaceOnUse">
      <stop stop-color="#fff"/>
      <stop offset="1" stop-color="#fff" stop-opacity="0"/>
    </linearGradient>
    <linearGradient id="h" x1="2.833" x2="2.833" y1="12" y2="5" gradientUnits="userSpaceOnUse">
      <stop stop-color="#d88f22"/>
      <stop offset="1" stop-color="#d88f22" stop-opacity="0"/>
    </linearGradient>
    <linearGradient id="i" x1="7.833" x2="7.833" y1="5" y2="12" gradientUnits="userSpaceOnUse">
      <stop stop-color="#fff"/>
      <stop offset="1" stop-color="#fff" stop-opacity="0"/>
    </linearGradient>
    <linearGradient id="j" x1="6" x2="6" y1="2" y2="8" gradientUnits="userSpaceOnUse">
      <stop stop-color="#fff"/>
      <stop offset="1" stop-color="#e0e0e0"/>
    </linearGradient>
    <linearGradient id="k" x1="6" x2="6" y1="1" y2="8" gradientUnits="userSpaceOnUse">
      <stop stop-color="#fff"/>
      <stop offset="1" stop-color="#e0e0e0"/>
    </linearGradient>
    <linearGradient id="l" x1="12" x2="12" y1="7.5" y2="12" gradientUnits="userSpaceOnUse">
      <stop stop-color="#fff"/>
      <stop offset="1" stop-color="#e0e0e0"/>
    </linearGradient>
    <linearGradient id="n" x1="12" x2="12" y1="7.5" y2="12" gradientUnits="userSpaceOnUse">
      <stop stop-color="#fff"/>
      <stop offset="1" stop-color="#b0b0b0"/>
    </linearGradient>
    <linearGradient id="p" x1="12.734" x2="12.734" y1="8.659" y2="14.253" gradientUnits="userSpaceOnUse">
      <stop stop-color="#fff"/>
      <stop offset=".033" stop-color="#fff" stop-opacity=".235"/>
      <stop offset=".986" stop-color="#fff" stop-opacity=".157"/>
      <stop offset="1" stop-color="#fff" stop-opacity=".392"/>
    </linearGradient>
    <linearGradient id="q" x1="12.314" x2="12.314" y1="12" y2="16" gradientUnits="userSpaceOnUse">
      <stop stop-color="#a4885f"/>
      <stop offset="1" stop-color="#a08358" stop-opacity=".5"/>
    </linearGradient>
    <linearGradient id="r" x1="17.311" x2="3.628" y1="6.5" y2="6.5" gradientUnits="userSpaceOnUse">
      <stop stop-color="#fff"/>
      <stop offset="1" stop-color="#fff" stop-opacity="0"/>
    </linearGradient>
    <linearGradient id="t" x1="17.311" x2="3.628" y1="13.5" y2="13.5" gradientUnits="userSpaceOnUse">
      <stop/>
      <stop offset="1" stop-opacity="0"/>
    </linearGradient>
    <linearGradient id="u" x1="13.833" x2="13.833" y1="8" y2="15" gradientUnits="userSpaceOnUse">
      <stop stop-color="#fff"/>
      <stop offset="1" stop-color="#fff" stop-opacity="0"/>
    </linearGradient>
    <linearGradient id="v" x1="10.833" x2="10.833" y1="8" y2="15" gradientUnits="userSpaceOnUse">
      <stop stop-color="#fff"/>
      <stop offset="1" stop-color="#fff" stop-opacity="0"/>
    </linearGradient>
    <linearGradient id="w" x1="9.833" x2="9.833" y1="15" y2="8" gradientUnits="userSpaceOnUse">
      <stop stop-color="#d88f22"/>
      <stop offset="1" stop-color="#d88f22" stop-opacity="0"/>
    </linearGradient>
    <linearGradient id="x" x1="14.833" x2="14.833" y1="15" y2="8" gradientUnits="userSpaceOnUse">
      <stop stop-color="#d88f22"/>
      <stop offset="1" stop-color="#d88f22" stop-opacity="0"/>
    </linearGradient>
    <radialGradient id="b" cx="0" cy="0" r="1" gradientTransform="matrix(0 14 -20 0 2.667 1.75)" gradientUnits="userSpaceOnUse">
      <stop stop-color="#f2e0c4"/>
      <stop offset=".765" stop-color="#e5af5b"/>
      <stop offset="1" stop-color="#af6900"/>
    </radialGradient>
    <radialGradient id="o" cx="0" cy="0" r="1" gradientTransform="matrix(0 9 -12 0 10 8.25)" gradientUnits="userSpaceOnUse">
      <stop stop-color="#f2e0c4"/>
      <stop offset=".765" stop-color="#e5af5b"/>
      <stop offset="1" stop-color="#af6900"/>
    </radialGradient>
    <clipPath id="a">
      <path fill="#fff" d="M0 0h16v16H0z"/>
    </clipPath>
  </defs>
</svg>
