<?xml version="1.0" encoding="UTF-8" standalone="no"?>
<svg
   width="16"
   height="16"
   fill="none"
   viewBox="0 0 16 16"
   version="1.1"
   id="svg3"
   xmlns="http://www.w3.org/2000/svg"
   xmlns:svg="http://www.w3.org/2000/svg">
  <g
     clip-path="url(#a)"
     id="g2">
    <path
       fill="#b7c8b6"
       d="M0 15.127c2.721.001 2.443-2.963 3.765-3.789 1.53-.956 2.872.229 3.14 1.204.338 1.231-.295 2.238-1.137 2.782-1.615 1.044-5.51.801-5.768-.197M13.684.978c.569-.564 1.04-.31.732.357-.977 1.57-1.588 3.006-2.536 4.668-.608.018-1.21.18-1.755.489C8.968 7.146 8.277 8.346 8 9.898v.402c-.305.153-.611.455-.802.85-.48-.603-1.167-.993-1.938-1.022C9 4.978 9.685 4.947 13.684.978M8 12.031c0-.558.445-1.008 1-1.023L10.54 11h2.92l1.54.008c.555.015 1 .465 1 1.023V15c0 .54-.484 1-1 1H9c-.496 0-1-.477-1-1z"
       id="path1" />
    <path
       style="baseline-shift:baseline;display:inline;overflow:visible;vector-effect:none;fill:#b7c8b6;stroke-linejoin:round;enable-background:accumulate;stop-color:#000000;stop-opacity:1;opacity:1"
       d="M 12.001953,6.9746094 C 11.037078,6.973284 10.226206,7.4487828 9.7285156,8.0839844 9.2308251,8.719186 8.9941406,9.4948099 8.9941406,10.25 V 11 h 1.5507814 v -0.75 c 0,-0.4128099 0.150987,-0.8876391 0.404297,-1.2109375 0.253309,-0.3232984 0.557703,-0.5143465 1.048828,-0.5136719 0.506761,6.961e-4 0.812029,0.1845558 1.058594,0.4921875 C 13.303206,9.3252098 13.455078,9.78496 13.455078,10.25 V 11 h 1.550781 v -0.75 c 0,-0.78496 -0.235799,-1.5737567 -0.740234,-2.203125 C 13.76119,7.4175067 12.951192,6.9759133 12.001953,6.9746094 Z"
       id="path2" />
  </g>
  <defs
     id="defs3">
    <clipPath
       id="a">
      <path
         fill="#fff"
         d="M0 0h16v16H0z"
         id="path3" />
    </clipPath>
  </defs>
</svg>
