<svg xmlns="http://www.w3.org/2000/svg" xmlns:xlink="http://www.w3.org/1999/xlink" width="16" height="16" fill="none" viewBox="0 0 16 16">
  <path fill="#fafafa" d="M6 5.522c1-.522 5.023-.714 7.861 3.42C14 10 10.006 11.157 7.188 10.775c-1.703-.01-3.711-.96-4.283-1.93.509-1.088.596-2.447 3.095-3.324"/>
  <path fill="url(#a)" fill-opacity=".4" d="M4.944 6.646c.374-.501.54-.61.361.136-.135.072-.586.589-.584.576A8.7 8.7 0 0 0 3.18 9.08a8 8 0 0 1-.275-.235c.638-.953 1.33-1.676 2.04-2.2" style="fill:url(#a)"/>
  <path fill="url(#b)" fill-opacity=".8" d="M4.944 6.646c.374-.501.54-.61.361.136-.135.072-.586.589-.584.576A8.7 8.7 0 0 0 3.18 9.08a8 8 0 0 1-.275-.235c.638-.953 1.33-1.676 2.04-2.2" style="fill:url(#b)"/>
  <ellipse cx="8.059" cy="7.983" rx="3.058" ry="2.974" style="fill:url(#c);stroke:#193b6c;stroke-width:.40267;stroke-linejoin:round;stroke-dasharray:none;stroke-opacity:1"/>
  <path fill="#000" d="M8 8.9a1 1 0 1 0 0-2 1 1 0 0 0 0 2"/>
  <path fill="#f7f9fd" d="M6.875 8.4a1.125 1.125 0 1 0 0-2.25 1.125 1.125 0 0 0 0 2.25"/>
  <path d="M8 2.76c-.667 0-1.34.118-2.055.347C2.455 4.23.655 7.273.185 8.176c-.015.015-.16.29-.175.607a1.33 1.33 0 0 0 1.031 1.36 9.9 9.9 0 0 0 5.953 2.822 5.8 5.8 0 0 0 2.014 0 9.9 9.9 0 0 0 5.953-2.822 1.33 1.33 0 0 0 1.021-1.131c.06-.46-.142-.72-.33-1.112-1.397-2.554-3.569-4.141-5.595-4.793C9.63 2.97 8.874 2.76 8 2.76m0 2.8h.002c.87.001 2.38.278 3.928 1.85.212.215.668.706 1.16 1.44-1.475 1.315-3.285 1.97-5.09 1.97s-3.613-.655-5.088-1.97c.466-.695.904-1.18 1.16-1.44C5.294 6.168 6.562 5.604 8 5.56" style="display:inline;fill:url(#d)"/>
  <path d="M9.025 12.357c3.707-.415 5.47-2.764 5.73-2.789 1.014-.568.55-1.116-.042-1.984-1.12-1.62-2.962-3.467-5.586-3.977a5.5 5.5 0 0 0-2.258 0c-2.885.44-4.89 2.965-5.621 4.034-.728.978-.874 1.265-.006 1.927.266.026 2.024 2.374 5.73 2.79m.813-.944c-2.848-.077-4.77-1.595-5.648-2.473C3.558 6.745 5.26 5.293 7.299 5.014c.507-.07.898-.07 1.4 0 2.936.402 4.77 3.294 5.162 3.927-.876.877-2.798 2.396-5.648 2.473" style="display:inline;fill:url(#e)"/>
  <path d="M7.997 3.6c3.215 0 5.696 2.294 7.263 4.9.22.382.04.994-.598 1.036a9.37 9.37 0 0 1-5.609 2.777c-.898.089-1.19.09-2.107 0a9.37 9.37 0 0 1-5.609-2.777A.692.692 0 0 1 .74 8.5c1.567-2.606 4.048-4.9 7.263-4.9m4.728 3.724C11.28 5.689 9.623 4.922 8.002 4.92c-2.618 0-4.61 1.948-5.918 4.028 3.472 3.325 8.359 3.325 11.831 0-1.307-2.08-3.3-4.027-5.918-4.028-1.62 0-3.279.768-4.727 2.403" style="display:inline;stroke:#cc9658;stroke-width:.38;stroke-dasharray:none;stroke-opacity:1"/>
  <defs>
    <linearGradient id="a" x1="3.656" x2="3.981" y1="6.336" y2="6.664" gradientTransform="translate(0 1.4)" gradientUnits="userSpaceOnUse">
      <stop/>
      <stop offset="1" stop-color="#7e7e7e"/>
    </linearGradient>
    <linearGradient id="b" x1="4.761" x2="3.046" y1="5.684" y2="7.546" gradientTransform="translate(0 1.4)" gradientUnits="userSpaceOnUse">
      <stop stop-color="#fff" stop-opacity="0"/>
      <stop offset="1" stop-color="#fff"/>
    </linearGradient>
    <linearGradient id="f" x1="4.8" x2="11.146" y1="3.408" y2="9.959" gradientTransform="translate(0 1.4)" gradientUnits="userSpaceOnUse">
      <stop stop-color="#204a87"/>
      <stop offset="1" stop-color="#4874aa"/>
    </linearGradient>
    <linearGradient id="d" x1="8.096" x2="8.096" y1="1.985" y2="9.297" gradientTransform="translate(0 1.4)" gradientUnits="userSpaceOnUse">
      <stop stop-color="#5b3000"/>
      <stop offset=".506" stop-color="#8a4a01"/>
      <stop offset="1" stop-color="#8a4a01"/>
    </linearGradient>
    <linearGradient id="e" x1="8" x2="8" y1="2" y2="11.068" gradientTransform="translate(0 1.4)" gradientUnits="userSpaceOnUse">
      <stop offset=".096" stop-color="#ebdad1"/>
      <stop offset=".904" stop-color="#f6eeea"/>
    </linearGradient>
    <linearGradient xlink:href="#f" id="c" x1="4.8" x2="11.318" y1="7.983" y2="7.983" gradientUnits="userSpaceOnUse"/>
  </defs>
</svg>
