<?xml version="1.0" encoding="UTF-8" standalone="no"?>
<svg
   width="16"
   height="16"
   fill="none"
   viewBox="0 0 16 16"
   version="1.1"
   id="svg4"
   xmlns="http://www.w3.org/2000/svg"
   xmlns:svg="http://www.w3.org/2000/svg">
  <g
     clip-path="url(#a)"
     id="g3">
    <path
       fill="#b7c8b6"
       fill-rule="evenodd"
       d="M5 .1275A3.97 3.97 0 0 1 6 0c.345 0 .68.0443 1 .1275C8.7198.5747 10 2.1457 10 4v2c.2953 0 .5751.0631.8267.1766-.777.2448-1.409.7234-1.8653 1.3058C8.371 8.236 8.067 9.161 8.025 10.04 7.44 10.1741 7 10.7484 7 11.4438V13H1a.997.997 0 0 1-1-1V8c0-1.1094.8906-2 2-2V4C2 2.1457 3.2802.5747 5 .1275M7 2.258C6.7078 2.0932 6.3672 2 6 2s-.7078.0932-1 .258C4.397 2.5979 4 3.2422 4 4v2h4V4c0-.7578-.397-1.4021-1-1.742"
       clip-rule="evenodd"
       id="path1" />
    <path
       fill="#b7c8b6"
       d="M8 12.0312c0-.5585.4453-1.0078 1-1.0234L10.5391 11h2.9218L15 11.0078c.5547.0156 1 .4649 1 1.0234V15c0 .5391-.4844 1-1 1H9c-.496 0-1-.4766-1-1z"
       id="path2" />
    <path
       style="baseline-shift:baseline;display:inline;overflow:visible;vector-effect:none;fill:#b7c8b6;stroke-linejoin:round;enable-background:accumulate;stop-color:#000000;stop-opacity:1;opacity:1"
       d="M 12,6.9746094 C 11.035137,6.9734829 10.226182,7.4488095 9.7285156,8.0839844 9.2308496,8.7191592 8.9941406,9.4949027 8.9941406,10.25 V 11 h 1.5507814 v -0.75 c 0,-0.4127027 0.150988,-0.8876373 0.404297,-1.2109375 C 11.202528,8.7157623 11.508763,8.5248171 12,8.5253906 c 0.506418,5.915e-4 0.810009,0.1825353 1.056641,0.4902344 0.246632,0.3076991 0.398437,0.7694177 0.398437,1.234375 V 11 h 1.550781 v -0.75 c 0,-0.7850427 -0.235766,-1.5737491 -0.740234,-2.203125 C 13.761157,7.4174991 12.949182,6.9757179 12,6.9746094 Z"
       id="path3" />
  </g>
  <defs
     id="defs4">
    <clipPath
       id="a">
      <path
         fill="#fff"
         d="M0 0h16v16H0z"
         id="path4" />
    </clipPath>
  </defs>
</svg>
