<svg xmlns="http://www.w3.org/2000/svg" width="16" height="16" viewBox="0 0 4.233333 4.233333">
  <g style="display:inline">
    <path d="M2.117196.91089c-.736731 0-1.450482.467722-1.952639 1.328577-.054174.093105-.026777.198466.041816.265187a.27104.27104 0 0 1 .042345-.167263c.474106-.812768 1.157028-1.266649 1.868478-1.266649s1.394373.453881 1.868478 1.266648a.27104.27104 0 0 1 .041816.174674c.072055-.066313.098001-.177351.042345-.272597C3.567679 1.378613 2.853927.91089 2.117196.91089m-.23078.726218c-.098327.019683-.197032.050797-.294829.096864a.2981.2981 0 0 0-.070928.190554.29811.29811 0 0 0 .29377.30065.29811.29811 0 0 0 .302238-.29324l-.298004-.004764h.298004a.29811.29811 0 0 0-.230252-.290064m1.097796.319706c.00615.042.012701.083857.012704.127564-.000027.486137-.394112.880222-.88025.88025-.486136-.000028-.880221-.394113-.880248-.88025.000002-.043527.0066-.0852.012703-.127035-.18854.158461-.369207.372197-.53249.652115a.27104.27104 0 0 1-.181025.13921c.922424.761319 2.239336.761117 3.161592-.00053a.27104.27104 0 0 1-.179438-.13868c-.163543-.280366-.344679-.494114-.533548-.652644" style="color:#000;font-style:normal;font-variant:normal;font-weight:400;font-stretch:normal;font-size:medium;line-height:normal;font-family:sans-serif;font-variant-ligatures:normal;font-variant-position:normal;font-variant-caps:normal;font-variant-numeric:normal;font-variant-alternates:normal;font-feature-settings:normal;text-indent:0;text-align:start;text-decoration:none;text-decoration-line:none;text-decoration-style:solid;text-decoration-color:#000;letter-spacing:normal;word-spacing:normal;text-transform:none;writing-mode:lr-tb;direction:ltr;text-orientation:mixed;dominant-baseline:auto;baseline-shift:baseline;text-anchor:start;white-space:normal;shape-padding:0;clip-rule:nonzero;display:inline;overflow:visible;visibility:visible;opacity:1;isolation:auto;mix-blend-mode:normal;color-interpolation:sRGB;color-interpolation-filters:linearRGB;solid-color:#000;solid-opacity:1;vector-effect:none;fill:#bebebe;fill-opacity:1;fill-rule:nonzero;stroke:none;stroke-width:.32521036;stroke-linecap:round;stroke-linejoin:miter;stroke-miterlimit:4;stroke-dasharray:none;stroke-dashoffset:0;stroke-opacity:1;color-rendering:auto;image-rendering:auto;shape-rendering:auto;text-rendering:auto"/>
    <path d="M2.117188.910156c-.736732 0-1.45097.469223-1.953125 1.330078a.220093.220093 0 1 0 .380859.220703c.447004-.766306 1.02085-1.111328 1.572265-1.111328s1.125262.345022 1.572266 1.111329a.220093.220093 0 1 0 .38086-.220704C3.568156 1.37938 2.853919.910156 2.117188.910156" style="color:#000;font-style:normal;font-variant:normal;font-weight:400;font-stretch:normal;font-size:medium;line-height:normal;font-family:sans-serif;font-variant-ligatures:normal;font-variant-position:normal;font-variant-caps:normal;font-variant-numeric:normal;font-variant-alternates:normal;font-feature-settings:normal;text-indent:0;text-align:start;text-decoration:none;text-decoration-line:none;text-decoration-style:solid;text-decoration-color:#000;letter-spacing:normal;word-spacing:normal;text-transform:none;writing-mode:lr-tb;direction:ltr;text-orientation:mixed;dominant-baseline:auto;baseline-shift:baseline;text-anchor:start;white-space:normal;shape-padding:0;clip-rule:nonzero;display:inline;overflow:visible;visibility:visible;opacity:1;isolation:auto;mix-blend-mode:normal;color-interpolation:sRGB;color-interpolation-filters:linearRGB;solid-color:#000;solid-opacity:1;vector-effect:none;fill:#bebebe;fill-opacity:1;fill-rule:nonzero;stroke:none;stroke-width:.44011807;stroke-linecap:round;stroke-linejoin:miter;stroke-miterlimit:4;stroke-dasharray:none;stroke-dashoffset:0;stroke-opacity:1;color-rendering:auto;image-rendering:auto;shape-rendering:auto;text-rendering:auto"/>
    <path d="M.347656 2.185547a.162621.162621 0 0 0-.115234.271484c1.009805 1.15406 2.759726 1.15406 3.769531 0a.162621.162621 0 1 0-.24414-.21289c-.888516 1.015442-2.392735 1.015442-3.28125 0a.16262.16262 0 0 0-.128907-.058594" style="color:#000;font-style:normal;font-variant:normal;font-weight:400;font-stretch:normal;font-size:medium;line-height:normal;font-family:sans-serif;font-variant-ligatures:normal;font-variant-position:normal;font-variant-caps:normal;font-variant-numeric:normal;font-variant-alternates:normal;font-feature-settings:normal;text-indent:0;text-align:start;text-decoration:none;text-decoration-line:none;text-decoration-style:solid;text-decoration-color:#000;letter-spacing:normal;word-spacing:normal;text-transform:none;writing-mode:lr-tb;direction:ltr;text-orientation:mixed;dominant-baseline:auto;baseline-shift:baseline;text-anchor:start;white-space:normal;shape-padding:0;clip-rule:nonzero;display:inline;overflow:visible;visibility:visible;opacity:1;isolation:auto;mix-blend-mode:normal;color-interpolation:sRGB;color-interpolation-filters:linearRGB;solid-color:#000;solid-opacity:1;vector-effect:none;fill:#bebebe;fill-opacity:1;fill-rule:nonzero;stroke:none;stroke-width:.32521039;stroke-linecap:round;stroke-linejoin:miter;stroke-miterlimit:4;stroke-dasharray:none;stroke-dashoffset:0;stroke-opacity:1;color-rendering:auto;image-rendering:auto;shape-rendering:auto;text-rendering:auto"/>
  </g>
</svg>
