<svg xmlns="http://www.w3.org/2000/svg" xmlns:xlink="http://www.w3.org/1999/xlink" width="16" height="16" fill="none" viewBox="0 0 16 16">
  <path fill="#fafafa" d="M5.35 4.76c-.6 1.32-.8 3.2 1.46 4.76-1.7 0-3.33-1.1-3.9-2.07a8.4 8.4 0 0 1 2.44-2.7m5.37.25q.6.4 1.2 1H12q-.6 0-1.11.13Z" style="display:inline"/>
  <path fill="url(#a)" fill-opacity=".4" d="M4.94 5.25c.38-.5.54-.61.37.13-.14.07-.6.6-.59.58a9 9 0 0 0-1.54 1.72q-.14-.1-.27-.23a9 9 0 0 1 2.03-2.2" style="display:inline"/>
  <path fill="url(#b)" fill-opacity=".8" d="M4.94 5.25c.38-.5.54-.61.37.13-.14.07-.6.6-.59.58a9 9 0 0 0-1.54 1.72q-.14-.1-.27-.23a9 9 0 0 1 2.03-2.2" style="display:inline"/>
  <path fill="url(#c)" d="M8.08 3.4a3.25 3.25 0 0 1 3.24 2.65q-.9.13-1.6.6c-.61.4-1 .94-1.25 1.43a5 5 0 0 0-.46 1.68A3.23 3.23 0 0 1 4.8 6.58a3.23 3.23 0 0 1 3.28-3.17" style="display:inline"/>
  <mask id="d" fill="#fff">
    <path d="M8.08 3.4a3.25 3.25 0 0 1 3.24 2.65q-.9.13-1.6.6c-.61.4-1 .94-1.25 1.43a5 5 0 0 0-.46 1.68A3.23 3.23 0 0 1 4.8 6.58a3.23 3.23 0 0 1 3.28-3.17"/>
  </mask>
  <path stroke="#193b6c" d="M8.08 3.4a3.25 3.25 0 0 1 3.24 2.65q-.9.13-1.6.6c-.61.4-1 .94-1.25 1.43a5 5 0 0 0-.46 1.68A3.23 3.23 0 0 1 4.8 6.58a3.23 3.23 0 0 1 3.28-3.17Z" mask="url(#d)" style="display:inline"/>
  <path fill="#000" d="M8 7.5a1 1 0 1 0 0-2 1 1 0 0 0 0 2" style="display:inline"/>
  <path fill="#f7f9fd" d="M6.88 7a1.13 1.13 0 1 0 0-2.25 1.13 1.13 0 0 0 0 2.25" style="display:inline"/>
  <path d="M8 1.36c-2.5 0-5.95 1.76-7.8 5.42-.44.76.04 1.4.13 1.52.1.12.34.35.72.44A10 10 0 0 0 7 11.56a.5.5 0 0 0 .54-.37 1 1 0 0 1 .47-.62v-.6l.05-.55c-1.98.03-3.61-.8-5.14-1.97 1.55-2.32 3.4-3.29 5.1-3.29.81.02 2.28.19 3.92 1.84.64 0 1.54.1 2.35.64a3.7 3.7 0 0 1 1.36 1.68c.24-.17.56-.89.18-1.54C13.92 3.12 10.5 1.36 8 1.36" style="display:inline;fill:url(#e)"/>
  <path fill="url(#f)" d="M8 2.1c4.1 0 6.53 3.7 7.3 4.98.1.19.12.43.04.63a4.2 4.2 0 0 0-2.63-1.75c-1.45-1.64-3.1-2.4-4.7-2.4-2.89 0-4.85 2.35-5.87 3.98a8.3 8.3 0 0 0 5.65 2.47 1.5 1.5 0 0 0-.82.95 9.4 9.4 0 0 1-5.65-2.78C.8 8.14.41 7.6.71 7.08 2.59 3.85 5.26 2.1 8 2.1" style="display:inline"/>
  <path d="M8 2.01c-3.3 0-5.84 2.35-7.42 5-.1.08-.31.83.32 1.2q.18.09.36.1a9.6 9.6 0 0 0 5.82 2.8l.05-.14q.16-.5.6-.76l.27-.16v-.19h-.36a8 8 0 0 1-5.27-2.34c1.28-2 3.17-3.8 5.63-3.8 1.56 0 3.16.72 4.57 2.31q.98.13 1.7.61c.56.37.93.84 1.18 1.28l.06-.26a1 1 0 0 0-.08-.66l-.18-.3C13.35 3.62 10.7 2 8 2m0 .38c3.78 0 6.06 3.12 7 4.63a4 4 0 0 0-2.17-1.27C11.36 4.1 9.67 3.33 8 3.33c-2.68 0-4.7 1.92-6.16 4.25a8.6 8.6 0 0 0 5.48 2.58 2 2 0 0 0-.43.54 9.2 9.2 0 0 1-5.47-2.75h-.07l-.26-.07A.5.5 0 0 1 .9 7.2C2.45 4.61 4.88 2.4 8 2.4" style="baseline-shift:baseline;display:inline;overflow:visible;opacity:1;vector-effect:none;fill:#cc9658;stop-color:#000;stop-opacity:1"/>
  <path stroke="url(#g)" d="M9.5 12v-2s0-2.5 2.5-2.5 2.5 2.5 2.5 2.5v2" opacity=".6" style="display:inline"/>
  <g opacity=".4" style="display:inline">
    <mask id="h" width="7" height="5" x="8" y="7" maskUnits="userSpaceOnUse">
      <path fill="#fff" d="M12 7q1.06.02 1.72.47c.44.3.73.68.91 1.06A4 4 0 0 1 15 9.96V12H9V9.96l.05-.43c.04-.27.13-.63.32-1 .18-.38.47-.76.9-1.06Q10.95 7.02 12 7" opacity=".4"/>
    </mask>
    <g mask="url(#h)">
      <path d="M12 6.5q-1.2.01-2 .56A3 3 0 0 0 8.92 8.3a4 4 0 0 0-.42 1.64v2.56h7V9.94a3 3 0 0 0-.05-.5q-.06-.46-.37-1.14A3 3 0 0 0 14 7.06a3.6 3.6 0 0 0-2-.56m0 1q.93.01 1.45.4.51.36.74.85a3 3 0 0 1 .31 1.22v1.53h-5V9.98l.04-.37c.04-.23.12-.55.27-.86q.23-.48.74-.86.52-.37 1.45-.39" style="baseline-shift:baseline;display:inline;overflow:visible;opacity:1;vector-effect:none;fill:#fff;stroke-linecap:round;stop-color:#000;stop-opacity:1"/>
    </g>
  </g>
  <path stroke="url(#i)" stroke-linecap="round" stroke-width=".5" d="M9.5 10s0-.47.2-1c.2-.5.57-1.06 1.3-1.34" style="display:inline"/>
  <g fill="#000" fill-rule="evenodd" clip-rule="evenodd" opacity=".4" style="display:inline">
    <path d="M14 12h-4V9.99l.03-.3q.05-.32.23-.72t.57-.66C11.1 8.13 11.46 8 12 8s.9.13 1.17.3q.38.28.57.67a3 3 0 0 1 .26.96v.06zm-1-1v-1a2 2 0 0 0-.15-.58 1 1 0 0 0-.24-.28A1 1 0 0 0 12 9q-.4.01-.54.1l-.07.04a1 1 0 0 0-.24.28q-.1.22-.13.44L11 10v1Z"/>
    <path d="M16 14.5c0 .83-.67 1.5-1.5 1.5h-5A1.5 1.5 0 0 1 8 14.5V9.97a4.4 4.4 0 0 1 .47-1.9A3.7 3.7 0 0 1 12 6q1.34.01 2.28.64c.61.41 1 .95 1.25 1.44a5 5 0 0 1 .46 1.7l.01.19zm-7 0c0 .28.22.5.5.5h5a.5.5 0 0 0 .5-.5V9.98q0-.16-.05-.45a4 4 0 0 0-.32-1 3 3 0 0 0-.9-1.06A3 3 0 0 0 12 7q-1.06.02-1.72.47c-.44.3-.73.68-.91 1.06A4 4 0 0 0 9 9.86z"/>
  </g>
  <path fill="url(#j)" d="M9.5 15h5a.5.5 0 0 0 .5-.5v-2a.5.5 0 0 0-.5-.5h-5a.5.5 0 0 0-.5.5v2c0 .28.22.5.5.5" style="display:inline"/>
  <path stroke="url(#k)" stroke-linejoin="round" d="M14.5 12.5h-5v2h5z" opacity=".5" style="display:inline"/>
  <path stroke="url(#l)" d="M14.5 11.5h-5a1 1 0 0 0-1 1v2a1 1 0 0 0 1 1h5a1 1 0 0 0 1-1v-2a1 1 0 0 0-1-1z" style="display:inline"/>
  <path fill="url(#m)" d="M14.5 13a.5.5 0 1 0 0-1v.5zm-5-.5v.5h5v-1h-5z" opacity=".2" style="display:inline"/>
  <g opacity=".05" style="display:inline">
    <mask id="n" width="8" height="5" x="8" y="11" maskUnits="userSpaceOnUse">
      <path fill="#fff" d="M14.5 11.5h-5a1 1 0 0 0-1 1v2a1 1 0 0 0 1 1h5a1 1 0 0 0 1-1v-2a1 1 0 0 0-1-1" opacity=".05"/>
    </mask>
    <g mask="url(#n)">
      <path d="M9.5 11c-.82 0-1.5.68-1.5 1.5v2c0 .82.68 1.5 1.5 1.5h5c.82 0 1.5-.68 1.5-1.5v-2c0-.82-.68-1.5-1.5-1.5Zm0 1h5c.28 0 .5.22.5.5v2a.5.5 0 0 1-.5.5h-5a.5.5 0 0 1-.5-.5v-2c0-.28.22-.5.5-.5" style="baseline-shift:baseline;display:inline;overflow:visible;opacity:1;vector-effect:none;fill:#000;stop-color:#000;stop-opacity:1"/>
    </g>
  </g>
  <path stroke="url(#o)" stroke-linecap="square" d="M9.5 13.5h5" opacity=".05" style="display:inline"/>
  <path fill="url(#p)" d="M14 14c0 .55-.22 1-.5 1s-.5-.45-.5-1v-1c0-.55.22-1 .5-1s.5.45.5 1z" opacity=".5" style="display:inline"/>
  <path fill="url(#q)" d="M11 14c0 .55-.22 1-.5 1s-.5-.45-.5-1v-1c0-.55.22-1 .5-1s.5.45.5 1z" opacity=".5" style="display:inline"/>
  <path fill="url(#r)" d="M10 12.5a.5.5 0 0 0-1 0v2a.5.5 0 0 0 1 0Z" opacity=".5" style="display:inline"/>
  <path fill="url(#s)" d="M15 12.5a.5.5 0 0 0-1 0v2a.5.5 0 0 0 1 0z" opacity=".5" style="display:inline"/>
  <defs>
    <linearGradient id="a" x1="3.66" x2="3.98" y1="6.34" y2="6.66" gradientUnits="userSpaceOnUse">
      <stop/>
      <stop offset="1" stop-color="#7e7e7e"/>
    </linearGradient>
    <linearGradient id="b" x1="4.76" x2="3.05" y1="5.68" y2="7.55" gradientUnits="userSpaceOnUse">
      <stop stop-color="#fff" stop-opacity="0"/>
      <stop offset="1" stop-color="#fff"/>
    </linearGradient>
    <linearGradient id="c" x1="4.8" x2="11.15" y1="3.41" y2="9.96" gradientUnits="userSpaceOnUse">
      <stop stop-color="#204a87"/>
      <stop offset="1" stop-color="#4874aa"/>
    </linearGradient>
    <linearGradient id="t" x1="8.1" x2="8.1" y1="1.98" y2="11.15" gradientUnits="userSpaceOnUse">
      <stop stop-color="#5b3000"/>
      <stop offset=".4" stop-color="#8a4a01"/>
      <stop offset=".8" stop-color="#8a4a01"/>
      <stop offset="1" stop-color="#723d00"/>
    </linearGradient>
    <linearGradient id="f" x1="8" x2="8" y1="2" y2="11.07" gradientUnits="userSpaceOnUse">
      <stop offset=".1" stop-color="#ebdad1"/>
      <stop offset=".9" stop-color="#f6eeea"/>
    </linearGradient>
    <linearGradient id="g" x1="12" x2="12" y1="7.5" y2="12" gradientUnits="userSpaceOnUse">
      <stop stop-color="#fff"/>
      <stop offset="1" stop-color="#e0e0e0"/>
    </linearGradient>
    <linearGradient id="i" x1="12" x2="12" y1="7.5" y2="12" gradientUnits="userSpaceOnUse">
      <stop stop-color="#fff"/>
      <stop offset="1" stop-color="#b0b0b0"/>
    </linearGradient>
    <linearGradient id="k" x1="12.73" x2="12.73" y1="8.66" y2="14.25" gradientUnits="userSpaceOnUse">
      <stop stop-color="#fff"/>
      <stop offset=".03" stop-color="#fff" stop-opacity=".24"/>
      <stop offset=".99" stop-color="#fff" stop-opacity=".16"/>
      <stop offset="1" stop-color="#fff" stop-opacity=".39"/>
    </linearGradient>
    <linearGradient id="l" x1="12.31" x2="12.31" y1="12" y2="16" gradientUnits="userSpaceOnUse">
      <stop stop-color="#a4885f"/>
      <stop offset="1" stop-color="#a08358" stop-opacity=".5"/>
    </linearGradient>
    <linearGradient id="m" x1="17.31" x2="3.63" y1="6.5" y2="6.5" gradientUnits="userSpaceOnUse">
      <stop stop-color="#fff"/>
      <stop offset="1" stop-color="#fff" stop-opacity="0"/>
    </linearGradient>
    <linearGradient id="o" x1="-nan" x2="-nan" y1="-nan" y2="-nan" gradientUnits="userSpaceOnUse">
      <stop/>
      <stop offset="1" stop-opacity="0"/>
    </linearGradient>
    <linearGradient id="p" x1="13.83" x2="13.83" y1="8" y2="15" gradientUnits="userSpaceOnUse">
      <stop stop-color="#fff"/>
      <stop offset="1" stop-color="#fff" stop-opacity="0"/>
    </linearGradient>
    <linearGradient id="q" x1="10.83" x2="10.83" y1="8" y2="15" gradientUnits="userSpaceOnUse">
      <stop stop-color="#fff"/>
      <stop offset="1" stop-color="#fff" stop-opacity="0"/>
    </linearGradient>
    <linearGradient id="r" x1="9.83" x2="9.83" y1="15" y2="8" gradientUnits="userSpaceOnUse">
      <stop stop-color="#d88f22"/>
      <stop offset="1" stop-color="#d88f22" stop-opacity="0"/>
    </linearGradient>
    <linearGradient id="s" x1="14.83" x2="14.83" y1="15" y2="8" gradientUnits="userSpaceOnUse">
      <stop stop-color="#d88f22"/>
      <stop offset="1" stop-color="#d88f22" stop-opacity="0"/>
    </linearGradient>
    <linearGradient xlink:href="#t" id="e" x1="8.1" x2="8.1" y1="1.98" y2="11.15" gradientUnits="userSpaceOnUse"/>
    <radialGradient id="j" cx="0" cy="0" r="1" gradientTransform="matrix(0 9 -12 0 10 8.25)" gradientUnits="userSpaceOnUse">
      <stop stop-color="#f2e0c4"/>
      <stop offset=".76" stop-color="#e5af5b"/>
      <stop offset="1" stop-color="#af6900"/>
    </radialGradient>
  </defs>
</svg>
