<?xml version="1.0" encoding="UTF-8" standalone="no"?>
<svg
   width="16"
   height="16"
   fill="none"
   viewBox="0 0 16 16"
   version="1.1"
   id="svg3"
   xmlns="http://www.w3.org/2000/svg"
   xmlns:svg="http://www.w3.org/2000/svg">
  <defs
     id="defs3" />
  <path
     fill="#b7c8b6"
     d="M10 3H8v3l3 .0078V4l2.1641 2.17c-.3601-.1094-.7486-.1694-1.1612-.17-1.3266-.0015-2.3723.629-3.041 1.4824a4.3 4.3 0 0 0-.3486.5196L8 8v2.0459c-.5723.1446-.9998.7122-1 1.3975V14l-3-2.9961h2V8H3v2L0 7l3-3v2.0078L6 6V3H4l3-3z"
     id="path1" />
  <path
     fill="#b7c8b6"
     d="M8 12.0312c0-.5585.4453-1.0078 1-1.0234L10.5391 11h2.9218L15 11.0078c.5547.0156 1 .4649 1 1.0234V15c0 .5391-.4844 1-1 1H9c-.496 0-1-.4766-1-1z"
     id="path2" />
  <path
     style="baseline-shift:baseline;display:inline;overflow:visible;vector-effect:none;fill:#b7c8b6;stroke-linejoin:round;enable-background:accumulate;stop-color:#000000;stop-opacity:1;opacity:1"
     d="M 12,6.9746094 C 11.035137,6.9734829 10.226182,7.4488095 9.7285156,8.0839844 9.2308496,8.7191592 8.9941406,9.4949027 8.9941406,10.25 V 11 h 1.5507814 v -0.75 c 0,-0.4127027 0.150988,-0.8876373 0.404297,-1.2109375 C 11.202528,8.7157623 11.508763,8.5248171 12,8.5253906 c 0.506418,5.915e-4 0.810009,0.1825353 1.056641,0.4902344 0.246632,0.3076991 0.398437,0.7694177 0.398437,1.234375 V 11 h 1.550781 v -0.75 c 0,-0.7850427 -0.235766,-1.5737491 -0.740234,-2.203125 C 13.761157,7.4174991 12.949182,6.9757179 12,6.9746094 Z"
     id="path3" />
</svg>
