<svg xmlns="http://www.w3.org/2000/svg" width="16" height="16" fill="none" viewBox="0 0 16 16">
  <g fill="#bebebe" clip-path="url(#a)">
    <path fill-rule="evenodd" d="M11 6v.126C9.917 6.411 9.103 7.142 8.614 8H6V6z" clip-rule="evenodd" opacity=".66"/>
    <path d="M0 0v3h1v3.446a1.5 1.5 0 0 0-1 1.412A1.5 1.5 0 0 0 1 9.27V13H0v3h3v-3H2V9.27a1.5 1.5 0 0 0 0-2.826V3h1V0z"/>
    <path fill-rule="evenodd" d="M5.924 9h2.27a4.7 4.7 0 0 0-.174 1.25v.006A2 2 0 0 0 7 12v3c0 .359.094.695.26.986l-2.216-.006L5 10c0-.5.5-1 .924-1" clip-rule="evenodd"/>
    <path d="M7.281.175c.506-.027.987.119 1.358.555C8.973 1.123 9 1.5 9 2v2c0 .609-.383 1-1 1s-1-.39-1-1V2c0-.28.063-.554.259-.765-.366.082-.625.263-.982.506C5.16 2.5 5.62 4.05 4.281 5.179 3.827 5.562 3.488 5.862 3 6V4.873c.23-.173.472-.258.701-.506.799-.867.58-2.443 2.045-3.472.542-.381 1.01-.693 1.537-.719 0 0-.508.026-.002 0"/>
    <path fill-rule="evenodd" d="M12.001 6.975c.974 0 1.75.43 2.265 1.072.5.625.74 1.428.74 2.203l-.006.758c.555.015 1 .465 1 1.023V15c0 .54-.484 1-1 1H9c-.496 0-1-.477-1-1v-2.969c0-.558.445-1.008 1-1.023l-.005-.758c0-.742.243-1.54.734-2.167a2.83 2.83 0 0 1 2.272-1.108M12 8.525c-.463 0-.805.2-1.05.514-.26.331-.404.785-.404 1.211V11h2.91v-.75c0-.475-.15-.921-.4-1.233-.235-.295-.575-.49-1.056-.492" clip-rule="evenodd"/>
  </g>
  <defs>
    <clipPath id="a">
      <path fill="#fff" d="M0 0h16v16H0z"/>
    </clipPath>
  </defs>
</svg>
