<?xml version="1.0" encoding="UTF-8" standalone="no"?>
<svg
   width="16"
   height="16"
   viewBox="0 0 16 16"
   id="svg30571"
   version="1.1"
   inkscape:version="1.4.2 (f4327f4, 2025-05-13)"
   sodipodi:docname="gimp-channel-cyan-symbolic.svg"
   xmlns:inkscape="http://www.inkscape.org/namespaces/inkscape"
   xmlns:sodipodi="http://sodipodi.sourceforge.net/DTD/sodipodi-0.dtd"
   xmlns="http://www.w3.org/2000/svg"
   xmlns:svg="http://www.w3.org/2000/svg"
   xmlns:rdf="http://www.w3.org/1999/02/22-rdf-syntax-ns#"
   xmlns:cc="http://creativecommons.org/ns#"
   xmlns:dc="http://purl.org/dc/elements/1.1/">
  <defs
     id="defs30573" />
  <sodipodi:namedview
     id="base"
     pagecolor="#ffffff"
     bordercolor="#666666"
     borderopacity="1"
     inkscape:pageopacity="0"
     inkscape:pageshadow="2"
     inkscape:zoom="16"
     inkscape:cx="11.96875"
     inkscape:cy="4.28125"
     inkscape:document-units="px"
     inkscape:current-layer="layer1"
     showgrid="true"
     units="px"
     inkscape:snap-page="true"
     inkscape:snap-bbox="true"
     inkscape:bbox-paths="true"
     inkscape:bbox-nodes="true"
     inkscape:snap-bbox-edge-midpoints="true"
     inkscape:snap-bbox-midpoints="true"
     inkscape:object-paths="true"
     inkscape:snap-intersection-paths="true"
     inkscape:object-nodes="true"
     inkscape:snap-smooth-nodes="true"
     inkscape:snap-midpoints="true"
     inkscape:snap-object-midpoints="true"
     inkscape:snap-center="true"
     inkscape:snap-text-baseline="true"
     showborder="false"
     inkscape:window-width="1920"
     inkscape:window-height="1002"
     inkscape:window-x="-8"
     inkscape:window-y="-8"
     inkscape:window-maximized="1"
     inkscape:snap-global="false"
     showguides="false"
     inkscape:showpageshadow="0"
     inkscape:pagecheckerboard="0"
     inkscape:deskcolor="#d1d1d1">
    <inkscape:grid
       type="xygrid"
       id="grid4242"
       originx="0"
       originy="0"
       spacingy="1"
       spacingx="1"
       units="px" />
  </sodipodi:namedview>
  <metadata
     id="metadata30576">
    <rdf:RDF>
      <cc:Work
         rdf:about="">
        <dc:format>
          image/svg+xml
        </dc:format>
        <dc:type
           rdf:resource="http://purl.org/dc/dcmitype/StillImage" />
        <dc:creator>
          <cc:Agent>
            <dc:title>Klaus Staedtler       </dc:title>
          </cc:Agent>
        </dc:creator>
        <dc:title />
      </cc:Work>
    </rdf:RDF>
  </metadata>
  <g
     inkscape:label="Layer 1"
     inkscape:groupmode="layer"
     id="layer1"
     transform="translate(0,-1036.3622)">
    <g
       id="g34">
      <rect
         y="1036.3622"
         x="0"
         height="16"
         width="16"
         id="rect6884"
         style="opacity:0.3;fill:none;stroke:none" />
      <path
         sodipodi:nodetypes="cccccccccc"
         inkscape:connector-curvature="0"
         id="rect6886"
         d="m 0,1036.3622 v 16 h 16 v -16 z m 1,1 h 14 v 14 H 1 Z"
         style="fill:#bebebe;fill-opacity:1;stroke:none" />
      <path
         style="opacity:0.75;fill:#bebebe;fill-opacity:1;stroke:none;stroke-width:0.428;stroke-linecap:round;stroke-linejoin:miter;stroke-miterlimit:4;stroke-dasharray:none;stroke-opacity:1"
         d="m 1,1037.3622 v 14.0001 h 14 v -14.0001 z m 7.1796876,0.9921 c 0.6542968,0 1.2714842,0.086 1.8476564,0.2618 0.581054,0.1709 1.125,0.4307 1.632813,0.7773 v 1.5625 c -0.498048,-0.4638 -1.031251,-0.8134 -1.597657,-1.0429 -0.5615235,-0.2295 -1.1582032,-0.3438 -1.7929688,-0.3438 -1.25,0 -2.2070312,0.3858 -2.8710936,1.1523 -0.6640626,0.7618 -0.9960937,1.8634 -0.9960937,3.3087 0,1.4403 0.3320311,2.5459 0.9960937,3.3125 0.6640624,0.7617 1.6210936,1.1406 2.8710936,1.1406 0.6347656,0 1.2314453,-0.1143 1.7929688,-0.3437 0.566406,-0.2296 1.099609,-0.5753 1.597657,-1.0391 v 1.543 c -0.517579,0.3515 -1.067384,0.6171 -1.648438,0.793 -0.5761722,0.1757 -1.1875001,0.2616 -1.8320314,0.2616 -1.6552736,0 -2.958008,-0.5049 -3.9101564,-1.5156 -0.9521484,-1.0156 -1.4257812,-2.3994 -1.4257812,-4.1523 0,-1.7578 0.4736328,-3.1416 1.4257812,-4.1524 0.9521484,-1.0157 2.2548828,-1.5235 3.9101564,-1.5235 z"
         id="rect3938-6"
         inkscape:connector-curvature="0" />
    </g>
  </g>
</svg>
